<?xml version="1.0" encoding="UTF-8"?>
<svg version="1.1" xmlns="http://www.w3.org/2000/svg" width="189" height="201">
<path d="M0 0 C1.26904175 0.06465454 1.26904175 0.06465454 2.5637207 0.13061523 C8.61746682 0.49246682 8.61746682 0.49246682 9.75 1.625 C9.15 8.225 9.15 8.225 6.75 10.625 C6.37579443 13.7295591 6.37579443 13.7295591 6.3359375 17.40625 C6.31652603 18.0881691 6.29711456 18.7700882 6.27711487 19.47267151 C6.21674311 21.68998582 6.17054087 23.90733565 6.125 26.125 C6.08726108 27.63469914 6.04893103 29.14438362 6.01000977 30.65405273 C5.75548814 40.97967031 5.65694826 51.29625697 5.75 61.625 C12.02 61.955 18.29 62.285 24.75 62.625 C24.75 53.715 24.75 44.805 24.75 35.625 C23.1 35.295 21.45 34.965 19.75 34.625 C17.75 32.625 17.75 32.625 17.4375 29.1875 C17.75 25.625 17.75 25.625 18.98432922 23.92362976 C21.24541235 22.26063014 22.52240127 22.26148549 25.31323242 22.28442383 C26.23396042 22.28465042 27.15468842 22.28487701 28.10331726 22.28511047 C29.09402725 22.30059433 30.08473724 22.31607819 31.10546875 22.33203125 C32.12224197 22.33627609 33.1390152 22.34052094 34.18659973 22.34489441 C37.43716812 22.36170003 40.6871187 22.39935618 43.9375 22.4375 C46.13996501 22.45254438 48.34243973 22.46623321 50.54492188 22.47851562 C55.94682572 22.51160964 61.34836872 22.56182777 66.75 22.625 C66.68976506 20.54087093 66.60091679 18.45755565 66.5 16.375 C66.45359375 15.21484375 66.4071875 14.0546875 66.359375 12.859375 C65.65254184 9.10772207 64.54221023 8.09652073 61.75 5.625 C61.4375 2.9375 61.4375 2.9375 61.75 0.625 C63.42673649 -1.05173649 65.47855076 -0.50287817 67.71655273 -0.51394653 C68.75404663 -0.51091019 68.75404663 -0.51091019 69.8125 -0.5078125 C70.51898682 -0.50876923 71.22547363 -0.50972595 71.95336914 -0.51071167 C73.44970793 -0.51139333 74.94604967 -0.50954005 76.44238281 -0.50537109 C78.74030157 -0.50002257 81.03802486 -0.50531651 83.3359375 -0.51171875 C84.78645877 -0.51105797 86.23697991 -0.5097768 87.6875 -0.5078125 C88.3791626 -0.50983673 89.0708252 -0.51186096 89.78344727 -0.51394653 C94.63504776 -0.48995224 94.63504776 -0.48995224 95.75 0.625 C96.0625 3.4375 96.0625 3.4375 95.75 6.625 C94.7909375 7.4603125 94.7909375 7.4603125 93.8125 8.3125 C90.45210112 12.08021996 90.91859153 16.73584556 90.75 21.625 C91.46542969 21.57859375 92.18085937 21.5321875 92.91796875 21.484375 C104.12485628 21.07843341 114.16141277 23.27094712 122.81640625 30.703125 C130.8803573 38.71820362 134.79614919 47.33897062 135.0625 58.75 C134.9137123 69.74789115 131.50705815 76.61735363 123.87109375 84.43359375 C121.96505613 86.40281494 120.33853624 88.3969891 118.75 90.625 C119.62011719 91.15287109 119.62011719 91.15287109 120.5078125 91.69140625 C130.66786124 98.11269118 135.49375349 105.32584397 139.75 116.625 C142.47592038 129.3021719 140.80219244 140.37254666 134 151.375 C127.07115201 161.07538719 117.64139372 166.94042651 105.99108887 169.19865417 C98.93164888 170.12728122 91.77638735 169.91006478 84.66796875 169.890625 C82.92303921 169.89197453 81.17811003 169.89391746 79.43318176 169.89642334 C75.79469181 169.89935715 72.15630066 169.89513078 68.51782227 169.88574219 C63.85963495 169.87430604 59.2016771 169.88094436 54.54349804 169.89288712 C50.94810762 169.90011671 47.35277159 169.89781346 43.75737953 169.89263153 C42.03941127 169.89130028 40.32143802 169.89292433 38.60347557 169.89759064 C36.20581337 169.90267867 33.8085232 169.89491572 31.41088867 169.88378906 C30.70586716 169.88783752 30.00084564 169.89188599 29.27445984 169.89605713 C25.34607691 169.8623433 22.24111179 169.48277449 18.75 167.625 C17.36449803 164.85399606 17.5622533 162.6915294 17.75 159.625 C19.75 156.625 19.75 156.625 21.875 155.9375 C22.49375 155.834375 23.1125 155.73125 23.75 155.625 C24.73929545 132.61598758 24.86772198 109.65141952 24.75 86.625 C29.26613964 84.04901856 33.2900889 84.29352645 38.375 84.3125 C39.24640625 84.29638672 40.1178125 84.28027344 41.015625 84.26367188 C42.26472656 84.26270508 42.26472656 84.26270508 43.5390625 84.26171875 C44.67915771 84.25724731 44.67915771 84.25724731 45.84228516 84.25268555 C46.786604 84.4369812 46.786604 84.4369812 47.75 84.625 C50.17988075 88.26982112 49.96534505 89.87483259 49.88525391 94.20776367 C49.87579239 94.87144455 49.86633087 95.53512543 49.85658264 96.21891785 C49.82292973 98.41054995 49.77480888 100.60161335 49.7265625 102.79296875 C49.70039275 104.31324278 49.67512595 105.83353259 49.65072632 107.35383606 C49.58410081 111.35383089 49.50520275 115.35349338 49.42376709 119.35321045 C49.342822 123.43521374 49.27345749 127.51741188 49.203125 131.59960938 C49.06343176 139.60830946 48.9107758 147.61669554 48.75 155.625 C56.34919512 155.55800595 63.94787553 155.468201 71.54663086 155.36254883 C74.13152954 155.32929889 76.71650084 155.30126723 79.30151367 155.27856445 C83.01773009 155.24502073 86.73328101 155.19270272 90.44921875 155.13671875 C91.60459641 155.13032883 92.75997406 155.1239389 93.95036316 155.11735535 C95.03110611 155.09756119 96.11184906 155.07776703 97.2253418 155.05737305 C98.17354294 155.04626999 99.12174408 155.03516693 100.09867859 155.02372742 C103.22398695 154.55371796 105.11810574 153.32553244 107.75 151.625 C108.41 151.625 109.07 151.625 109.75 151.625 C110.12125 150.8515625 110.12125 150.8515625 110.5 150.0625 C111.75 147.625 111.75 147.625 113.8125 144.375 C115.97798071 140.59144635 116.564432 136.94147296 116.75 132.625 C116.78996094 131.92503906 116.82992187 131.22507813 116.87109375 130.50390625 C117.17607701 120.43945854 115.63385331 112.3355189 108.99609375 104.57421875 C106.27714022 102.21463995 104.18285586 101.65463328 100.6875 100.875 C99.12322266 100.51148437 99.12322266 100.51148437 97.52734375 100.140625 C94.72920068 99.53373255 94.72920068 99.53373255 91.75 99.625 C89.81036357 119.73373329 89.81036357 119.73373329 91.75 139.625 C93.06387169 140.97751497 94.39426252 142.31445377 95.75 143.625 C95.42 145.275 95.09 146.925 94.75 148.625 C84.19 148.625 73.63 148.625 62.75 148.625 C62.75 146.315 62.75 144.005 62.75 141.625 C64.04946667 140.58136973 65.38356443 139.5792702 66.75 138.625 C67.33017246 135.98871973 67.33017246 135.98871973 67.20410156 132.96020508 C67.20364838 131.21873955 67.20364838 131.21873955 67.20318604 129.4420929 C67.18254089 128.18889755 67.16189575 126.93570221 67.140625 125.64453125 C67.13213531 123.71984261 67.13213531 123.71984261 67.12347412 121.75627136 C67.10821488 118.34799955 67.06893221 114.94041161 67.0246582 111.53240967 C66.98371078 108.0536016 66.96546434 104.57468282 66.9453125 101.09570312 C66.90243703 94.27185482 66.8341831 87.44846025 66.75 80.625 C63.11523699 79.78907101 59.7680922 79.503063 56.04174805 79.51147461 C54.36057137 79.51158791 54.36057137 79.51158791 52.64543152 79.51170349 C50.8467437 79.51944542 50.8467437 79.51944542 49.01171875 79.52734375 C47.77581497 79.5287587 46.53991119 79.53017365 45.26655579 79.53163147 C41.99341655 79.53627382 38.72032713 79.54524689 35.44720459 79.55633545 C32.10217752 79.56659596 28.75714827 79.57105369 25.41210938 79.57617188 C18.8580535 79.58719093 12.30403082 79.60392164 5.75 79.625 C5.72456244 86.88410694 5.70709636 94.1432023 5.69506836 101.40234375 C5.6900519 103.86979604 5.68323719 106.33724537 5.67456055 108.8046875 C5.66237712 112.35938244 5.6567447 115.91403793 5.65234375 119.46875 C5.64718246 120.56489624 5.64202118 121.66104248 5.63670349 122.79040527 C5.03965688 132.63149944 5.03965688 132.63149944 8.25 141.3125 C8.745 141.745625 9.24 142.17875 9.75 142.625 C10.5625 145.1875 10.5625 145.1875 10.75 147.625 C7.88133116 150.49366884 5.85344387 149.88353358 1.84375 149.890625 C0.82299377 149.89349518 0.82299377 149.89349518 -0.21838379 149.89642334 C-1.65747446 149.89778463 -3.09657744 149.89409205 -4.53564453 149.88574219 C-6.74149087 149.87504128 -8.94652281 149.88563872 -11.15234375 149.8984375 C-12.54948097 149.89711589 -13.94661768 149.89455348 -15.34375 149.890625 C-16.61927734 149.88836914 -17.89480469 149.88611328 -19.20898438 149.88378906 C-22.25 149.625 -22.25 149.625 -24.25 147.625 C-24.03321485 144.80679303 -23.82516954 143.17620414 -21.75 141.1875 C-17.5425835 136.80477448 -19.08665904 127.41808315 -19.07299805 121.71630859 C-19.06314125 119.92509834 -19.06314125 119.92509834 -19.05308533 118.09770203 C-19.03341344 114.15628693 -19.02170183 110.21488517 -19.01171875 106.2734375 C-19.0076682 104.91332606 -19.00355119 103.55321483 -18.99936867 102.19310379 C-18.98035221 95.80831349 -18.96610765 89.42353457 -18.9577567 83.03872144 C-18.94796413 75.67464069 -18.9215777 68.3108589 -18.88125581 60.94688356 C-18.85111938 55.24738159 -18.83629064 49.54796556 -18.83297569 43.84838545 C-18.83062455 40.44666391 -18.82165481 37.04526311 -18.79651451 33.64362717 C-18.77229035 29.85380591 -18.77305711 26.06477654 -18.7800293 22.27490234 C-18.76721924 21.14856888 -18.75440918 20.02223541 -18.74121094 18.86177063 C-18.74815475 17.83000198 -18.75509857 16.79823334 -18.76225281 15.73519897 C-18.75986445 14.83963476 -18.7574761 13.94407055 -18.75501537 13.02136803 C-19.40226044 9.88786187 -20.96955215 8.78895999 -23.25 6.625 C-23.5 3.375 -23.5 3.375 -23.25 0.625 C-15.42227566 -0.28846873 -7.85804862 -0.41420549 0 0 Z M49.75 36.625 C49.3659128 40.77958562 49.27990427 44.95625264 49.125 49.125 C49.0734375 50.30449219 49.021875 51.48398438 48.96875 52.69921875 C48.92492187 53.81941406 48.88109375 54.93960938 48.8359375 56.09375 C48.7951709 57.12951172 48.7544043 58.16527344 48.71240234 59.23242188 C48.47170059 61.57867032 48.47170059 61.57867032 49.75 62.625 C52.58908274 62.8889643 55.40481371 63.09372159 58.25 63.25 C59.44689453 63.32734375 59.44689453 63.32734375 60.66796875 63.40625 C62.69325187 63.52315938 64.72186912 63.57890612 66.75 63.625 C67.97784809 62.61940206 67.97784809 62.61940206 67.86352539 60.58374023 C67.85567017 59.27191772 67.85567017 59.27191772 67.84765625 57.93359375 C67.84282227 56.51723633 67.84282227 56.51723633 67.83789062 55.07226562 C67.82951172 54.07904297 67.82113281 53.08582031 67.8125 52.0625 C67.80798828 51.06541016 67.80347656 50.06832031 67.79882812 49.04101562 C67.78700007 46.56895151 67.77051849 44.09700482 67.75 41.625 C71.22914941 41.59612186 74.70826831 41.57824313 78.1875 41.5625 C79.18072266 41.55412109 80.17394531 41.54574219 81.19726562 41.53710938 C82.61362305 41.53227539 82.61362305 41.53227539 84.05859375 41.52734375 C85.37041626 41.51948853 85.37041626 41.51948853 86.70874023 41.51147461 C88.75 41.625 88.75 41.625 89.75 42.625 C89.87197808 44.00550858 89.92768899 45.39197647 89.95532227 46.77758789 C89.9852401 48.09884422 89.9852401 48.09884422 90.01576233 49.4467926 C90.03247482 50.40407761 90.04918732 51.36136261 90.06640625 52.34765625 C90.08718735 53.32286728 90.10796844 54.29807831 90.12937927 55.30284119 C90.19498412 58.4309863 90.25381028 61.55921822 90.3125 64.6875 C90.35567483 66.8027435 90.39928877 68.91797809 90.44335938 71.03320312 C90.55067655 76.23037587 90.6524222 81.42763577 90.75 86.625 C92.35767836 86.68081303 93.9659136 86.72074976 95.57421875 86.75390625 C96.46971436 86.77783447 97.36520996 86.8017627 98.2878418 86.82641602 C100.99732682 86.82108905 100.99732682 86.82108905 103.5625 84.5625 C104.284375 83.593125 105.00625 82.62375 105.75 81.625 C106.19085938 81.07070312 106.63171875 80.51640625 107.0859375 79.9453125 C113.11805515 72.10007278 113.44768454 64.29291432 112.75 54.625 C111.58339658 48.49788121 108.31112384 43.8088046 103.75 39.625 C96.96988852 35.38743033 89.97310179 35.47402069 82.23046875 35.4921875 C81.33129227 35.49123077 80.43211578 35.49027405 79.50569153 35.48928833 C77.61552866 35.48861053 75.72536342 35.4904368 73.83520508 35.49462891 C70.92979794 35.50001428 68.02454319 35.49465436 65.11914062 35.48828125 C63.28124966 35.48894149 61.44335878 35.49022152 59.60546875 35.4921875 C58.73262741 35.49016327 57.85978607 35.48813904 56.960495 35.48605347 C53.0413615 35.11037774 53.0413615 35.11037774 49.75 36.625 Z " fill="#4D6E83" transform="translate(34.25,19.375)"/>
<path d="M0 0 C1.26904175 0.06465454 1.26904175 0.06465454 2.5637207 0.13061523 C8.61746682 0.49246682 8.61746682 0.49246682 9.75 1.625 C10 4.0625 10 4.0625 9.75 6.625 C6.75 8.625 6.75 8.625 3.75 8.625 C3.09 9.285 2.43 9.945 1.75 10.625 C1.42 9.635 1.09 8.645 0.75 7.625 C0.09 7.625 -0.57 7.625 -1.25 7.625 C-1.58 6.965 -1.91 6.305 -2.25 5.625 C-3.24 5.295 -4.23 4.965 -5.25 4.625 C-5.58 7.265 -5.91 9.905 -6.25 12.625 C-4.6 12.625 -2.95 12.625 -1.25 12.625 C-1.25 15.265 -1.25 17.905 -1.25 20.625 C-0.59 20.625 0.07 20.625 0.75 20.625 C1.88881369 22.90262738 1.94687863 24.35923231 2.06640625 26.89453125 C2.10838135 27.77415527 2.15035645 28.6537793 2.19360352 29.56005859 C2.23283936 30.50961426 2.2720752 31.45916992 2.3125 32.4375 C2.3549585 33.40768066 2.39741699 34.37786133 2.44116211 35.37744141 C2.84563765 45.46084566 2.84284725 55.53559853 2.75 65.625 C3.41 65.955 4.07 66.285 4.75 66.625 C4.75 67.285 4.75 67.945 4.75 68.625 C2.77 68.625 0.79 68.625 -1.25 68.625 C-1.25 71.265 -1.25 73.905 -1.25 76.625 C0.4 76.955 2.05 77.285 3.75 77.625 C3.75 98.415 3.75 119.205 3.75 140.625 C5.4 140.625 7.05 140.625 8.75 140.625 C10.1450848 142.92278673 10.82438619 144.1042967 10.4375 146.8125 C9.75 148.625 9.75 148.625 8.75 149.625 C4.35001055 149.84332989 -0.05534812 149.81079146 -4.46020508 149.81030273 C-6.67483782 149.81248751 -8.88897123 149.83063531 -11.10351562 149.84960938 C-12.50520662 149.85254356 -13.9069 149.85452819 -15.30859375 149.85546875 C-16.59048584 149.85957764 -17.87237793 149.86368652 -19.19311523 149.86791992 C-22.25 149.625 -22.25 149.625 -24.25 147.625 C-24.03321485 144.80679303 -23.82516954 143.17620414 -21.75 141.1875 C-17.5425835 136.80477448 -19.08665904 127.41808315 -19.07299805 121.71630859 C-19.06314125 119.92509834 -19.06314125 119.92509834 -19.05308533 118.09770203 C-19.03341344 114.15628693 -19.02170183 110.21488517 -19.01171875 106.2734375 C-19.0076682 104.91332606 -19.00355119 103.55321483 -18.99936867 102.19310379 C-18.98035221 95.80831349 -18.96610765 89.42353457 -18.9577567 83.03872144 C-18.94796413 75.67464069 -18.9215777 68.3108589 -18.88125581 60.94688356 C-18.85111938 55.24738159 -18.83629064 49.54796556 -18.83297569 43.84838545 C-18.83062455 40.44666391 -18.82165481 37.04526311 -18.79651451 33.64362717 C-18.77229035 29.85380591 -18.77305711 26.06477654 -18.7800293 22.27490234 C-18.76721924 21.14856888 -18.75440918 20.02223541 -18.74121094 18.86177063 C-18.74815475 17.83000198 -18.75509857 16.79823334 -18.76225281 15.73519897 C-18.75986445 14.83963476 -18.7574761 13.94407055 -18.75501537 13.02136803 C-19.40226044 9.88786187 -20.96955215 8.78895999 -23.25 6.625 C-23.5 3.375 -23.5 3.375 -23.25 0.625 C-15.42227566 -0.28846873 -7.85804862 -0.41420549 0 0 Z " fill="#476F81" transform="translate(34.25,19.375)"/>
<path d="M0 0 C1.0374939 0.00303635 1.0374939 0.00303635 2.09594727 0.00613403 C2.80243408 0.00517731 3.5089209 0.00422058 4.23681641 0.00323486 C5.7331552 0.00255321 7.22949694 0.00440649 8.72583008 0.00857544 C11.02374884 0.01392396 13.32147213 0.00863003 15.61938477 0.00222778 C17.06990603 0.00288857 18.52042718 0.00416974 19.97094727 0.00613403 C20.66260986 0.0041098 21.35427246 0.00208557 22.06689453 0 C26.91849503 0.0239943 26.91849503 0.0239943 28.03344727 1.13894653 C28.34594727 3.95144653 28.34594727 3.95144653 28.03344727 7.13894653 C27.07438477 7.97425903 27.07438477 7.97425903 26.09594727 8.82644653 C22.73554839 12.59416649 23.2020388 17.24979209 23.03344727 22.13894653 C23.74887695 22.09254028 24.46430664 22.04613403 25.20141602 21.99832153 C36.40830354 21.59237994 46.44486004 23.78489365 55.09985352 31.21707153 C63.16380456 39.23215015 67.07959646 47.85291715 67.34594727 59.26394653 C67.19802662 70.19774791 63.75286663 77.11431639 56.34985352 85.04519653 C53.22356363 87.87098301 49.39988185 90.9980938 45.03344727 91.13894653 C43.65911816 89.8479101 42.3244837 88.51327564 41.03344727 87.13894653 C40.04344727 87.13894653 39.05344727 87.13894653 38.03344727 87.13894653 C38.5806841 83.76431939 39.08834726 82.05659654 41.03344727 79.13894653 C41.69344727 79.13894653 42.35344727 79.13894653 43.03344727 79.13894653 C44.23584871 74.37782468 44.25307342 69.70524535 44.28344727 64.82644653 C44.30407227 64.00982544 44.32469727 63.19320435 44.34594727 62.35183716 C44.39043286 55.37315899 43.0521918 49.49244447 38.72094727 43.82644653 C35.97568431 41.08118358 33.59459309 39.62965874 30.03344727 38.13894653 C30.03344727 37.47894653 30.03344727 36.81894653 30.03344727 36.13894653 C13.86344727 36.13894653 -2.30655273 36.13894653 -18.96655273 36.13894653 C-19.46155273 38.61394653 -19.46155273 38.61394653 -19.96655273 41.13894653 C-20.29655273 39.81894653 -20.62655273 38.49894653 -20.96655273 37.13894653 C-21.62655273 37.13894653 -22.28655273 37.13894653 -22.96655273 37.13894653 C-22.63655273 34.82894653 -22.30655273 32.51894653 -21.96655273 30.13894653 C-22.95655273 30.13894653 -23.94655273 30.13894653 -24.96655273 30.13894653 C-24.96655273 29.47894653 -24.96655273 28.81894653 -24.96655273 28.13894653 C-23.97655273 27.47894653 -22.98655273 26.81894653 -21.96655273 26.13894653 C-23.28655273 25.47894653 -24.60655273 24.81894653 -25.96655273 24.13894653 C-17.38655273 24.13894653 -8.80655273 24.13894653 0.03344727 24.13894653 C0.03344727 19.18894653 0.03344727 14.23894653 0.03344727 9.13894653 C-2.44155273 8.64394653 -2.44155273 8.64394653 -4.96655273 8.13894653 C-5.34718494 5.81286083 -5.67925218 3.47839389 -5.96655273 1.13894653 C-4.28981624 -0.53778996 -2.23800198 0.01106836 0 0 Z " fill="#31324C" transform="translate(101.966552734375,18.861053466796875)"/>
<path d="M0 0 C0.87140625 -0.01611328 1.7428125 -0.03222656 2.640625 -0.04882812 C3.88972656 -0.04979492 3.88972656 -0.04979492 5.1640625 -0.05078125 C5.92412598 -0.05376221 6.68418945 -0.05674316 7.46728516 -0.05981445 C8.09683105 0.06304932 8.72637695 0.18591309 9.375 0.3125 C11.81765347 3.9764802 11.58966476 5.62740479 11.51025391 9.98706055 C11.50079239 10.660495 11.49133087 11.33392944 11.48158264 12.027771 C11.44792669 14.25186445 11.39980658 16.47539786 11.3515625 18.69921875 C11.32539307 20.24191325 11.30012624 21.7846233 11.27572632 23.3273468 C11.20909771 27.38652234 11.13020029 31.44537054 11.04876709 35.50427246 C10.96782504 39.64660077 10.89845863 43.78912102 10.828125 47.93164062 C10.68842767 56.05882676 10.53577173 64.18570358 10.375 72.3125 C11.21683838 72.30202637 12.05867676 72.29155273 12.92602539 72.28076172 C16.07754489 72.24648485 19.2289687 72.22150659 22.38061523 72.20263672 C23.73937118 72.19263757 25.09810594 72.17903376 26.45678711 72.16162109 C28.42031296 72.13710406 30.38400201 72.12703038 32.34765625 72.1171875 C33.52593994 72.10671387 34.70422363 72.09624023 35.91821289 72.08544922 C39.69263817 72.3333633 42.83154036 72.98902923 46.375 74.3125 C46.82875 75.3025 47.2825 76.2925 47.75 77.3125 C49.02921263 80.45014346 49.02921263 80.45014346 51.55078125 81.1484375 C53.82349574 81.63620515 56.06805068 82.03199044 58.375 82.3125 C58.375 82.9725 58.375 83.6325 58.375 84.3125 C48.51768821 84.38195503 38.66043446 84.43528834 28.80292797 84.46793652 C24.22587134 84.48360459 19.64898189 84.50486359 15.07202148 84.53881836 C10.65648565 84.57137126 6.2411108 84.58934441 1.82546425 84.59713173 C0.13931048 84.60268258 -1.5468343 84.61352185 -3.23291969 84.62969017 C-5.59142854 84.65141075 -7.94926885 84.65446924 -10.30786133 84.65307617 C-11.00773163 84.663862 -11.70760193 84.67464783 -12.42868042 84.6857605 C-15.27564966 84.66751798 -17.18053351 84.61842748 -19.56278992 82.97871399 C-21.21296827 80.39019567 -20.93650063 78.30290604 -20.625 75.3125 C-18.625 72.3125 -18.625 72.3125 -16.5 71.625 C-15.88125 71.521875 -15.2625 71.41875 -14.625 71.3125 C-13.63570455 48.30348758 -13.50727802 25.33891952 -13.625 2.3125 C-9.10886036 -0.26348144 -5.0849111 -0.01897355 0 0 Z " fill="#44687D" transform="translate(72.625,103.6875)"/>
<path d="M0 0 C2.475 0.99 2.475 0.99 5 2 C5 2.66 5 3.32 5 4 C5.66 4 6.32 4 7 4 C7.33 4.66 7.66 5.32 8 6 C8.66 5.34 9.32 4.68 10 4 C12.625 3.875 12.625 3.875 15 4 C14.01 5.485 14.01 5.485 13 7 C12.6290589 10.19690499 12.6290589 10.19690499 12.5859375 13.87890625 C12.5568203 14.89966248 12.5568203 14.89966248 12.52711487 15.94104004 C12.46686993 18.14806558 12.42058948 20.35512722 12.375 22.5625 C12.33724885 24.06764158 12.29891842 25.57276875 12.26000977 27.07788086 C12.00515462 37.38724335 11.90709452 47.6874921 12 58 C18.27 58.33 24.54 58.66 31 59 C31 50.09 31 41.18 31 32 C29.35 31.67 27.7 31.34 26 31 C24 29 24 29 23.6875 25.5625 C24 22 24 22 25.23432922 20.29862976 C27.49541235 18.63563014 28.77240127 18.63648549 31.56323242 18.65942383 C32.48396042 18.65965042 33.40468842 18.65987701 34.35331726 18.66011047 C35.34402725 18.67559433 36.33473724 18.69107819 37.35546875 18.70703125 C38.37224197 18.71127609 39.3890152 18.71552094 40.43659973 18.71989441 C43.68716812 18.73670003 46.9371187 18.77435618 50.1875 18.8125 C52.38996501 18.82754438 54.59243973 18.84123321 56.79492188 18.85351562 C62.19685298 18.88660981 67.59832171 18.93840552 73 19 C72.67 14.38 72.34 9.76 72 5 C72.66 5 73.32 5 74 5 C74 9.95 74 14.9 74 20 C66.74 20.33 59.48 20.66 52 21 C52 21.99 52 22.98 52 24 C51.01 24 50.02 24 49 24 C49 24.66 49 25.32 49 26 C49.99 26 50.98 26 52 26 C51.67 28.31 51.34 30.62 51 33 C51.85011658 32.51300629 51.85011658 32.51300629 52.71740723 32.01617432 C55.20278054 30.9097253 56.81739364 30.74673806 59.52148438 30.74121094 C60.40920532 30.73490662 61.29692627 30.72860229 62.21154785 30.72210693 C63.63823792 30.72817963 63.63823792 30.72817963 65.09375 30.734375 C66.56926331 30.73150482 66.56926331 30.73150482 68.07458496 30.72857666 C70.15242774 30.72721687 72.23027906 30.73089893 74.30810547 30.73925781 C77.48814989 30.74996012 80.66762939 30.73935543 83.84765625 30.7265625 C85.86718875 30.72788413 87.88672089 30.7304466 89.90625 30.734375 C90.85737671 30.73032654 91.80850342 30.72627808 92.78845215 30.72210693 C93.6761731 30.72841125 94.56389404 30.73471558 95.47851562 30.74121094 C96.25698853 30.74280212 97.03546143 30.74439331 97.83752441 30.74603271 C100 31 100 31 104 33 C88.49 33 72.98 33 57 33 C56.67 41.25 56.34 49.5 56 58 C61.61 58.33 67.22 58.66 73 59 C73.33 59.66 73.66 60.32 74 61 C71.36 61.33 68.72 61.66 66 62 C67.485 62.99 67.485 62.99 69 64 C69.29296875 66.1640625 69.29296875 66.1640625 69.1875 68.625 C69.14689453 69.85089844 69.14689453 69.85089844 69.10546875 71.1015625 C69.07066406 71.72804688 69.03585938 72.35453125 69 73 C70.65 73.33 72.3 73.66 74 74 C74 74.66 74 75.32 74 76 C53.54 76 33.08 76 12 76 C11.979375 84.394375 11.95875 92.78875 11.9375 101.4375 C11.928396 104.07032959 11.91929199 106.70315918 11.90991211 109.41577148 C11.90698876 111.52587839 11.90444119 113.63598586 11.90234375 115.74609375 C11.8946698 117.36118835 11.8946698 117.36118835 11.88684082 119.00891113 C11.88614367 125.09293203 12.20206923 130.96720159 13 137 C12.01 137 11.02 137 10 137 C10 116.21 10 95.42 10 74 C8.35 73.67 6.7 73.34 5 73 C5 70.36 5 67.72 5 65 C6.98 65 8.96 65 11 65 C11 64.34 11 63.68 11 63 C10.01 62.67 9.02 62.34 8 62 C8.00523682 61.16976318 8.01047363 60.33952637 8.01586914 59.48413086 C8.24067985 38.21726737 8.24067985 38.21726737 7 17 C6.34 17 5.68 17 5 17 C5 14.36 5 11.72 5 9 C3.35 9 1.7 9 0 9 C0 6.03 0 3.06 0 0 Z " fill="#67A6AF" transform="translate(28,23)"/>
<path d="M0 0 C0.85078125 0.00322266 1.7015625 0.00644531 2.578125 0.00976562 C3.46757813 0.01814453 4.35703125 0.02652344 5.2734375 0.03515625 C6.170625 0.03966797 7.0678125 0.04417969 7.9921875 0.04882812 C10.21100398 0.06063034 12.42968768 0.0770947 14.6484375 0.09765625 C15.1434375 1.08765625 15.1434375 1.08765625 15.6484375 2.09765625 C8.7184375 2.09765625 1.7884375 2.09765625 -5.3515625 2.09765625 C-5.0215625 4.40765625 -4.6915625 6.71765625 -4.3515625 9.09765625 C-4.0215625 7.44765625 -3.6915625 5.79765625 -3.3515625 4.09765625 C-0.8727412 3.90376529 1.60624681 3.71725502 4.0859375 3.53515625 C4.79298828 3.47908203 5.50003906 3.42300781 6.22851562 3.36523438 C8.03271587 3.23574632 9.84075702 3.16244017 11.6484375 3.09765625 C13.19767555 4.6468943 12.81121912 6.13747003 12.85375977 8.29443359 C12.87370499 9.18560883 12.89365021 10.07678406 12.91419983 10.9949646 C12.93091232 11.96471222 12.94762482 12.93445984 12.96484375 13.93359375 C12.98562485 14.9238858 13.00640594 15.91417786 13.02781677 16.93447876 C13.09341958 20.11379788 13.15220967 23.29320342 13.2109375 26.47265625 C13.25411858 28.61068599 13.29773274 30.74870703 13.34179688 32.88671875 C13.6484375 47.9949551 13.6484375 47.9949551 13.6484375 52.09765625 C14.3084375 52.42765625 14.9684375 52.75765625 15.6484375 53.09765625 C15.6484375 53.75765625 15.6484375 54.41765625 15.6484375 55.09765625 C18.95597245 56.2001679 22.29410641 57.14831726 25.6484375 58.09765625 C25.6484375 58.42765625 25.6484375 58.75765625 25.6484375 59.09765625 C23.0084375 59.09765625 20.3684375 59.09765625 17.6484375 59.09765625 C15.70880107 79.20638954 15.70880107 79.20638954 17.6484375 99.09765625 C18.96230919 100.45017122 20.29270002 101.78711002 21.6484375 103.09765625 C21.3184375 104.74765625 20.9884375 106.39765625 20.6484375 108.09765625 C10.0884375 108.09765625 -0.4715625 108.09765625 -11.3515625 108.09765625 C-11.3515625 105.78765625 -11.3515625 103.47765625 -11.3515625 101.09765625 C-10.05279652 100.05315412 -8.7187203 99.05089143 -7.3515625 98.09765625 C-6.77823807 95.48240739 -6.77823807 95.48240739 -6.91333008 92.48046875 C-6.9186248 90.75352783 -6.9186248 90.75352783 -6.92402649 88.99169922 C-6.95969978 87.12602295 -6.95969978 87.12602295 -6.99609375 85.22265625 C-7.00412521 83.94664551 -7.01215668 82.67063477 -7.02043152 81.35595703 C-7.04455943 77.96347675 -7.08542577 74.57207315 -7.13519287 71.17993164 C-7.20146487 66.39994131 -7.23794302 61.61964214 -7.27555847 56.83935547 C-7.29730449 54.2940369 -7.32601998 51.74876677 -7.36225891 49.20361328 C-7.38173836 47.47667236 -7.38173836 47.47667236 -7.40161133 45.71484375 C-7.41589676 44.70019043 -7.43018219 43.68553711 -7.44490051 42.64013672 C-7.3515625 40.09765625 -7.3515625 40.09765625 -6.3515625 37.09765625 C-8.0015625 36.76765625 -9.6515625 36.43765625 -11.3515625 36.09765625 C-11.6815625 33.12765625 -12.0115625 30.15765625 -12.3515625 27.09765625 C-14.8265625 26.10765625 -14.8265625 26.10765625 -17.3515625 25.09765625 C-17.3515625 24.76765625 -17.3515625 24.43765625 -17.3515625 24.09765625 C-13.7215625 24.09765625 -10.0915625 24.09765625 -6.3515625 24.09765625 C-6.3515625 16.50765625 -6.3515625 8.91765625 -6.3515625 1.09765625 C-4.00303722 -0.07660639 -2.61382185 -0.01742548 0 0 Z " fill="#5A8F9C" transform="translate(108.3515625,59.90234375)"/>
<path d="M0 0 C1.0374939 0.00303635 1.0374939 0.00303635 2.09594727 0.00613403 C2.80243408 0.00517731 3.5089209 0.00422058 4.23681641 0.00323486 C5.7331552 0.00255321 7.22949694 0.00440649 8.72583008 0.00857544 C11.02374884 0.01392396 13.32147213 0.00863003 15.61938477 0.00222778 C17.06990603 0.00288857 18.52042718 0.00416974 19.97094727 0.00613403 C20.66260986 0.0041098 21.35427246 0.00208557 22.06689453 0 C26.91849503 0.0239943 26.91849503 0.0239943 28.03344727 1.13894653 C28.07425509 3.13853017 28.07599083 5.13939907 28.03344727 7.13894653 C26.05344727 7.79894653 24.07344727 8.45894653 22.03344727 9.13894653 C22.03344727 14.08894653 22.03344727 19.03894653 22.03344727 24.13894653 C26.98344727 24.13894653 31.93344727 24.13894653 37.03344727 24.13894653 C37.03344727 25.12894653 37.03344727 26.11894653 37.03344727 27.13894653 C36.37344727 27.79894653 35.71344727 28.45894653 35.03344727 29.13894653 C35.03344727 29.79894653 35.03344727 30.45894653 35.03344727 31.13894653 C34.37344727 31.79894653 33.71344727 32.45894653 33.03344727 33.13894653 C33.36344727 34.12894653 33.69344727 35.11894653 34.03344727 36.13894653 C16.54344727 36.13894653 -0.94655273 36.13894653 -18.96655273 36.13894653 C-19.46155273 38.61394653 -19.46155273 38.61394653 -19.96655273 41.13894653 C-20.29655273 39.81894653 -20.62655273 38.49894653 -20.96655273 37.13894653 C-21.62655273 37.13894653 -22.28655273 37.13894653 -22.96655273 37.13894653 C-22.63655273 34.82894653 -22.30655273 32.51894653 -21.96655273 30.13894653 C-22.95655273 30.13894653 -23.94655273 30.13894653 -24.96655273 30.13894653 C-24.96655273 29.47894653 -24.96655273 28.81894653 -24.96655273 28.13894653 C-23.97655273 27.47894653 -22.98655273 26.81894653 -21.96655273 26.13894653 C-23.28655273 25.47894653 -24.60655273 24.81894653 -25.96655273 24.13894653 C-17.38655273 24.13894653 -8.80655273 24.13894653 0.03344727 24.13894653 C0.03344727 19.18894653 0.03344727 14.23894653 0.03344727 9.13894653 C-2.44155273 8.64394653 -2.44155273 8.64394653 -4.96655273 8.13894653 C-5.34718494 5.81286083 -5.67925218 3.47839389 -5.96655273 1.13894653 C-4.28981624 -0.53778996 -2.23800198 0.01106836 0 0 Z " fill="#282945" transform="translate(101.966552734375,18.861053466796875)"/>
<path d="M0 0 C0.33 0 0.66 0 1 0 C1.2165625 1.1446875 1.2165625 1.1446875 1.4375 2.3125 C1.9632594 5.08172908 1.9632594 5.08172908 3 8 C5.31 8 7.62 8 10 8 C10.99 10.475 10.99 10.475 12 13 C12.33 11.35 12.66 9.7 13 8 C13.7425 8.0825 14.485 8.165 15.25 8.25 C18.78157027 7.92894816 19.76630364 6.64734383 22 4 C23 7 23 7 22.03125 9.63671875 C15.84503002 21.96181519 8.31483789 30.61789277 -4.8828125 35.45703125 C-10.55121757 36.91073661 -16.22623747 37.14285224 -22.04663086 37.11352539 C-23.20396225 37.11374443 -23.20396225 37.11374443 -24.38467407 37.1139679 C-26.91142683 37.11327638 -29.43810402 37.10551994 -31.96484375 37.09765625 C-33.72603821 37.09578936 -35.48723318 37.09436674 -37.24842834 37.09336853 C-41.86631727 37.08956467 -46.48417436 37.07975273 -51.10205078 37.06866455 C-55.82128468 37.05840446 -60.54052377 37.05386108 -65.25976562 37.04882812 C-74.50652435 37.03812842 -83.75325952 37.02107778 -93 37 C-93 36.67 -93 36.34 -93 36 C-68.91 36 -44.82 36 -20 36 C-20 35.34 -20 34.68 -20 34 C-20.61488281 33.98582031 -21.22976562 33.97164062 -21.86328125 33.95703125 C-24.33212506 33.8113419 -26.59783233 33.59628276 -29 33 C-31.06904054 30.55477027 -32 29.20908881 -32 26 C-36.69549443 25.26329764 -41.27785224 24.83135571 -46.02734375 24.68359375 C-47.31318359 24.64169922 -48.59902344 24.59980469 -49.92382812 24.55664062 C-51.26171625 24.516843 -52.59960691 24.47713049 -53.9375 24.4375 C-55.30274562 24.39423346 -56.66798018 24.35061679 -58.03320312 24.30664062 C-61.35537652 24.20098847 -64.67761946 24.09888605 -68 24 C-68 23.67 -68 23.34 -68 23 C-67.33458694 22.99413376 -66.66917389 22.98826752 -65.9835968 22.98222351 C-59.05657423 22.91827904 -52.13001579 22.83385609 -45.20336914 22.73754883 C-42.61847046 22.70429889 -40.03349916 22.67626723 -37.44848633 22.65356445 C-33.73226991 22.62002073 -30.01671899 22.56770272 -26.30078125 22.51171875 C-25.14540359 22.50532883 -23.99002594 22.4989389 -22.79963684 22.49235535 C-21.71889389 22.47256119 -20.63815094 22.45276703 -19.5246582 22.43237305 C-18.10235649 22.41571846 -18.10235649 22.41571846 -16.65132141 22.39872742 C-13.52601305 21.92871796 -11.63189426 20.70053244 -9 19 C-8.34 19 -7.68 19 -7 19 C-6.62875 18.2265625 -6.62875 18.2265625 -6.25 17.4375 C-5 15 -5 15 -2.9375 11.75 C-0.67352131 7.870096 -0.3121645 4.44834412 0 0 Z " fill="#7FC4C7" transform="translate(151,152)"/>
<path d="M0 0 C0 0.33 0 0.66 0 1 C-5.94 1.33 -11.88 1.66 -18 2 C-18.28875 3.44375 -18.5775 4.8875 -18.875 6.375 C-19.75 10.75 -19.75 10.75 -22 13 C-22.35491162 15.40556896 -22.35491162 15.40556896 -22.37890625 18.19921875 C-22.41306641 19.24400391 -22.44722656 20.28878906 -22.48242188 21.36523438 C-22.50884766 22.46158203 -22.53527344 23.55792969 -22.5625 24.6875 C-22.93219847 37.8314606 -22.93219847 37.8314606 -24 44 C-23.34 44.33 -22.68 44.66 -22 45 C-22.66 47.31 -23.32 49.62 -24 52 C-23.34 52.33 -22.68 52.66 -22 53 C-22.72912346 53.4934063 -22.72912346 53.4934063 -23.47297668 53.9967804 C-25.81882181 57.07416821 -25.43926299 60.33225179 -25.43237305 64.05151367 C-25.4425647 64.87125168 -25.45275635 65.69098969 -25.46325684 66.53556824 C-25.49346314 69.24643724 -25.50266432 71.95695335 -25.51171875 74.66796875 C-25.52855979 76.54699383 -25.54670925 78.4260076 -25.56611633 80.30500793 C-25.61368491 85.25170357 -25.64344987 90.19835338 -25.66955566 95.14520264 C-25.69932663 100.19259698 -25.74586882 105.23983329 -25.79101562 110.28710938 C-25.87712673 120.19132371 -25.94443725 130.09557049 -26 140 C-26.99 139.67 -27.98 139.34 -29 139 C-28.83865067 138.25561676 -28.67730133 137.51123352 -28.51106262 136.74429321 C-27.79808805 131.52069489 -27.83561611 126.35779212 -27.82299805 121.09130859 C-27.81314125 119.30009834 -27.81314125 119.30009834 -27.80308533 117.47270203 C-27.78341344 113.53128693 -27.77170183 109.58988517 -27.76171875 105.6484375 C-27.7576682 104.28832606 -27.75355119 102.92821483 -27.74936867 101.56810379 C-27.73035221 95.18331349 -27.71610765 88.79853457 -27.7077567 82.41372144 C-27.69796413 75.04964069 -27.6715777 67.6858589 -27.63125581 60.32188356 C-27.60111938 54.62238159 -27.58629064 48.92296556 -27.58297569 43.22338545 C-27.58062455 39.82166391 -27.57165481 36.42026311 -27.54651451 33.01862717 C-27.52229035 29.22880591 -27.52305711 25.43977654 -27.5300293 21.64990234 C-27.51721924 20.52356888 -27.50440918 19.39723541 -27.49121094 18.23677063 C-27.49815475 17.20500198 -27.50509857 16.17323334 -27.51225281 15.11019897 C-27.50986445 14.21463476 -27.5074761 13.31907055 -27.50501537 12.39636803 C-28.15226044 9.26286187 -29.71955215 8.16395999 -32 6 C-32.25 2.75 -32.25 2.75 -32 0 C-21.22299705 -1.25763948 -10.79298003 -0.74080644 0 0 Z " fill="#8CBEC3" transform="translate(43,20)"/>
<path d="M0 0 C0.66 0.33 1.32 0.66 2 1 C2.2038209 8.96033841 2.20198542 16.31716035 0 24 C-0.33660966 25.33250997 -0.67085458 26.66562667 -1 28 C2.12929178 29.83069903 4.37643146 30.23931181 7.984375 30.1953125 C8.91894531 30.18886719 9.85351562 30.18242187 10.81640625 30.17578125 C11.78449219 30.15902344 12.75257812 30.14226562 13.75 30.125 C14.73355469 30.11597656 15.71710938 30.10695312 16.73046875 30.09765625 C19.15389407 30.07412785 21.57682222 30.04125368 24 30 C23.505 28.02 23.505 28.02 23 26 C23.66 25.67 24.32 25.34 25 25 C25.495 23.515 25.495 23.515 26 22 C30.29 22 34.58 22 39 22 C39 22.66 39 23.32 39 24 C40.65 24.33 42.3 24.66 44 25 C43.67 26.32 43.34 27.64 43 29 C44.65 29 46.3 29 48 29 C48.495 30.485 48.495 30.485 49 32 C43.27341605 33.21327477 37.6261576 33.17912241 31.80078125 33.203125 C30.19277901 33.21167511 30.19277901 33.21167511 28.55229187 33.22039795 C26.29390441 33.22981737 24.0355034 33.23636973 21.77709961 33.24023438 C18.31405112 33.24999563 14.85158266 33.28107033 11.38867188 33.3125 C9.19271185 33.3190252 6.9967476 33.32427756 4.80078125 33.328125 C3.76327225 33.3404718 2.72576324 33.3528186 1.65681458 33.36553955 C0.21467842 33.3610379 0.21467842 33.3610379 -1.2565918 33.35644531 C-2.52517281 33.36191376 -2.52517281 33.36191376 -3.81938171 33.36749268 C-6.51352532 32.91345721 -7.40148382 32.18849407 -9 30 C-9.25265405 26.90498792 -9.39935013 24.79870027 -8 22 C-4.9375 21.375 -4.9375 21.375 -2 21 C-1.93941406 19.90300781 -1.87882812 18.80601562 -1.81640625 17.67578125 C-1.73195502 16.22134346 -1.64730934 14.76691695 -1.5625 13.3125 C-1.52318359 12.59126953 -1.48386719 11.87003906 -1.44335938 11.12695312 C-1.21814322 7.33292718 -0.87160695 3.71348508 0 0 Z " fill="#35465E" transform="translate(61,155)"/>
<path d="M0 0 C2.475 0.99 2.475 0.99 5 2 C5 2.66 5 3.32 5 4 C5.66 4 6.32 4 7 4 C7.33 4.66 7.66 5.32 8 6 C8.66 5.34 9.32 4.68 10 4 C12.625 3.875 12.625 3.875 15 4 C14.01 5.485 14.01 5.485 13 7 C12.6290589 10.19690499 12.6290589 10.19690499 12.5859375 13.87890625 C12.5568203 14.89966248 12.5568203 14.89966248 12.52711487 15.94104004 C12.46686993 18.14806558 12.42058948 20.35512722 12.375 22.5625 C12.33724885 24.06764158 12.29891842 25.57276875 12.26000977 27.07788086 C12.00515462 37.38724335 11.90709452 47.6874921 12 58 C18.27 58.33 24.54 58.66 31 59 C31 50.09 31 41.18 31 32 C30.01 31.67 29.02 31.34 28 31 C29.32 31 30.64 31 32 31 C32 40.24 32 49.48 32 59 C32.99 59.495 32.99 59.495 34 60 C32.02 62.475 32.02 62.475 30 65 C27.69 64.01 25.38 63.02 23 62 C22.67 62.66 22.34 63.32 22 64 C20.60427948 64.02736707 19.20839779 64.04655989 17.8125 64.0625 C17.03519531 64.07410156 16.25789063 64.08570312 15.45703125 64.09765625 C12.87761706 63.99513581 10.52200033 63.53085076 8 63 C8.00523682 62.13947021 8.01047363 61.27894043 8.01586914 60.39233398 C8.0331714 57.12133074 8.04557407 53.85037786 8.05493164 50.5793457 C8.05988235 49.17829611 8.06664464 47.77725144 8.07543945 46.3762207 C8.13555718 36.5345944 7.78606217 26.81292721 7 17 C6.34 17 5.68 17 5 17 C5 14.36 5 11.72 5 9 C3.35 9 1.7 9 0 9 C0 6.03 0 3.06 0 0 Z " fill="#82BEBF" transform="translate(28,23)"/>
<path d="M0 0 C6.93 0 13.86 0 21 0 C21 14.85 21 29.7 21 45 C24.63 45 28.26 45 32 45 C32 45.33 32 45.66 32 46 C28.535 46.495 28.535 46.495 25 47 C26.81222534 49.0624994 26.81222534 49.0624994 29 51 C29.99 51 30.98 51 32 51 C32.268125 51.763125 32.53625 52.52625 32.8125 53.3125 C33.94424112 55.87380884 34.91223401 57.19692938 37 59 C36.195625 58.71125 35.39125 58.4225 34.5625 58.125 C30.41868933 56.81642821 26.25021337 55.88782235 22 55 C21.87753906 54.36578125 21.75507812 53.7315625 21.62890625 53.078125 C21.19303909 50.80283433 21.19303909 50.80283433 18.9375 49.75 C18.298125 49.5025 17.65875 49.255 17 49 C17.16749756 48.03956787 17.33499512 47.07913574 17.50756836 46.08959961 C18.15055715 41.56200219 18.02588586 37.12677101 17.87890625 32.56640625 C17.85529526 31.68846909 17.83168427 30.81053192 17.80735779 29.9059906 C17.73129025 27.12463878 17.64702406 24.34360637 17.5625 21.5625 C17.50922221 19.66733291 17.45648229 17.77215061 17.40429688 15.87695312 C17.27575297 11.251103 17.13985978 6.62552127 17 2 C12.05 2 7.1 2 2 2 C2.04125 3.4025 2.0825 4.805 2.125 6.25 C2.23999767 10.1599209 1.87184371 11.25631258 0 15 C0 10.05 0 5.1 0 0 Z " fill="#567788" transform="translate(103,62)"/>
<path d="M0 0 C0.87140625 -0.01611328 1.7428125 -0.03222656 2.640625 -0.04882812 C3.88972656 -0.04979492 3.88972656 -0.04979492 5.1640625 -0.05078125 C5.92412598 -0.05376221 6.68418945 -0.05674316 7.46728516 -0.05981445 C8.09683105 0.06304932 8.72637695 0.18591309 9.375 0.3125 C11.4859704 3.4789556 11.61311616 4.10224598 11.51025391 7.69213867 C11.49008209 8.57282516 11.46991028 9.45351166 11.4491272 10.36088562 C11.40083267 11.78132927 11.40083267 11.78132927 11.3515625 13.23046875 C11.32653656 14.20284988 11.30151062 15.17523102 11.27572632 16.17707825 C11.19350631 19.28507239 11.09692404 22.392433 11 25.5 C10.94176252 27.60609385 10.8844592 29.71221376 10.828125 31.81835938 C10.68792434 36.98343777 10.53484098 42.14799359 10.375 47.3125 C10.045 47.3125 9.715 47.3125 9.375 47.3125 C9.375 42.3625 9.375 37.4125 9.375 32.3125 C8.385 32.3125 7.395 32.3125 6.375 32.3125 C6.705 23.4025 7.035 14.4925 7.375 5.3125 C4.375 3.97916667 4.375 3.97916667 1.375 5.3125 C-0.94691506 5.30422223 -3.24829971 5.1841056 -5.56640625 5.0546875 C-6.24574219 5.13976562 -6.92507812 5.22484375 -7.625 5.3125 C-10.11618953 9.0492843 -9.8315226 11.05701819 -9.75 15.5 C-9.73195312 16.77230469 -9.71390625 18.04460937 -9.6953125 19.35546875 C-9.67210937 20.33128906 -9.64890625 21.30710937 -9.625 22.3125 C-12.625 20.3125 -12.625 20.3125 -13.30859375 18.11328125 C-13.67332917 14.88469737 -13.72031656 11.74883957 -13.6875 8.5 C-13.67847656 7.33855469 -13.66945312 6.17710938 -13.66015625 4.98046875 C-13.64855469 4.10003906 -13.63695312 3.21960938 -13.625 2.3125 C-9.10886036 -0.26348144 -5.0849111 -0.01897355 0 0 Z " fill="#97C5C7" transform="translate(72.625,103.6875)"/>
<path d="M0 0 C0.66 0 1.32 0 2 0 C2.103125 1.2375 2.20625 2.475 2.3125 3.75 C2.6511393 6.63096121 2.82674631 7.77343749 4.625 10.125 C6 12 6 12 5.625 14.9375 C5.41875 15.948125 5.2125 16.95875 5 18 C5.32550502 19.66821323 5.65846063 21.33499557 6 23 C5.5625 25.8125 5.5625 25.8125 5 28 C5.66 28 6.32 28 7 28 C7 30.31 7 32.62 7 35 C6.34 35 5.68 35 5 35 C5.1391669 38.41697238 5.28749585 41.83348757 5.4375 45.25 C5.47681641 46.21808594 5.51613281 47.18617188 5.55664062 48.18359375 C5.61948242 49.58544922 5.61948242 49.58544922 5.68359375 51.015625 C5.72025146 51.87446289 5.75690918 52.73330078 5.79467773 53.61816406 C5.98703514 55.84960143 6.38846244 57.84982524 7 60 C6.34 60 5.68 60 5 60 C5 59.01 5 58.02 5 57 C4.34 57 3.68 57 3 57 C2.34 57.99 1.68 58.98 1 60 C0.34 59.67 -0.32 59.34 -1 59 C-0.505 58.505 -0.505 58.505 0 58 C0.09376053 56.18944975 0.1174411 54.37522799 0.11352539 52.56225586 C0.11344986 51.40112778 0.11337433 50.23999969 0.11329651 49.04368591 C0.10555458 47.14840904 0.10555458 47.14840904 0.09765625 45.21484375 C0.09553383 43.28591026 0.09553383 43.28591026 0.09336853 41.31800842 C0.08954418 37.89356557 0.07971462 34.46916491 0.06866455 31.04473877 C0.05844864 27.55261811 0.05387053 24.06049066 0.04882812 20.56835938 C0.03809227 13.71222222 0.02101684 6.85611313 0 0 Z " fill="#88C4C7" transform="translate(101,100)"/>
<path d="M0 0 C2.52113092 -0.05447822 5.0410585 -0.09389852 7.5625 -0.125 C8.26697266 -0.14175781 8.97144531 -0.15851563 9.69726562 -0.17578125 C14.50888685 -0.22012799 18.48808985 0.25977412 23 2 C23.680625 3.485 23.680625 3.485 24.375 5 C25.65421263 8.13764346 25.65421263 8.13764346 28.17578125 8.8359375 C30.44849574 9.32370515 32.69305068 9.71949044 35 10 C35 10.66 35 11.32 35 12 C26.09 12 17.18 12 8 12 C8 11.67 8 11.34 8 11 C9.65 10.67 11.3 10.34 13 10 C13 9.34 13 8.68 13 8 C11.35 8 9.7 8 8 8 C8 7.01 8 6.02 8 5 C6.35 4.67 4.7 4.34 3 4 C3.33 3.01 3.66 2.02 4 1 C2.68 0.67 1.36 0.34 0 0 Z " fill="#587C8C" transform="translate(96,176)"/>
<path d="M0 0 C2.4178712 -0.10826289 4.83087556 -0.18739789 7.25 -0.25 C8.27287109 -0.30027344 8.27287109 -0.30027344 9.31640625 -0.3515625 C12.74590784 -0.41815476 14.65727828 -0.24356953 17.484375 1.765625 C19 4 19 4 19 8 C21.31 8.33 23.62 8.66 26 9 C25.67 10.32 25.34 11.64 25 13 C-1.07 13 -27.14 13 -54 13 C-54 12.67 -54 12.34 -54 12 C-29.91 12 -5.82 12 19 12 C19 11.34 19 10.68 19 10 C18.38511719 9.98582031 17.77023438 9.97164062 17.13671875 9.95703125 C14.66787494 9.8113419 12.40216767 9.59628276 10 9 C7.93095946 6.55477027 7 5.20908881 7 2 C4.69 1.67 2.38 1.34 0 1 C0 0.67 0 0.34 0 0 Z " fill="#B1CCD4" transform="translate(112,176)"/>
<path d="M0 0 C0.66 0.33 1.32 0.66 2 1 C1.9278125 1.969375 1.855625 2.93875 1.78125 3.9375 C0.11144611 22.57569344 0.11144611 22.57569344 2 41 C3.31387169 42.35251497 4.64426252 43.68945377 6 45 C5.67 46.65 5.34 48.3 5 50 C-5.56 50 -16.12 50 -27 50 C-27 47.69 -27 45.38 -27 43 C-26.01 43 -25.02 43 -24 43 C-24.66 44.98 -25.32 46.96 -26 49 C-17.585 48.505 -17.585 48.505 -9 48 C-9 47.67 -9 47.34 -9 47 C-6.98177083 47.09765625 -4.96354167 47.1953125 -2.9453125 47.29296875 C-2.30335937 47.19628906 -1.66140625 47.09960938 -1 47 C-0.34 46.01 0.32 45.02 1 44 C-0.485 44.495 -0.485 44.495 -2 45 C-2.66 44.01 -3.32 43.02 -4 42 C-3.67 41.67 -3.34 41.34 -3 41 C-2.91152257 38.47905924 -2.88472699 35.98569107 -2.90234375 33.46484375 C-2.9037587 32.71159317 -2.90517365 31.95834259 -2.90663147 31.18226624 C-2.91224624 28.7673044 -2.92480117 26.35243399 -2.9375 23.9375 C-2.9425131 22.30403779 -2.94707634 20.67057414 -2.95117188 19.03710938 C-2.96222046 15.02470415 -2.97949494 11.01236759 -3 7 C-2.01 7 -1.02 7 0 7 C0 4.69 0 2.38 0 0 Z " fill="#A5CCCF" transform="translate(124,118)"/>
<path d="M0 0 C21.4490818 0 21.4490818 0 27.41015625 0.25390625 C28.64701172 0.30353516 29.88386719 0.35316406 31.15820312 0.40429688 C33.76512826 0.50993016 36.37190396 0.61931703 38.97851562 0.73242188 C40.21408203 0.78076172 41.44964844 0.82910156 42.72265625 0.87890625 C43.85453369 0.9260376 44.98641113 0.97316895 46.15258789 1.02172852 C49.07680244 1.14605441 49.07680244 1.14605441 52 0 C54.6875 0.9375 54.6875 0.9375 57 2 C57 2.66 57 3.32 57 4 C36.54 4 16.08 4 -5 4 C-5 9.28 -5 14.56 -5 20 C-5.33 20 -5.66 20 -6 20 C-6 14.06 -6 8.12 -6 2 C-4.02 2 -2.04 2 0 2 C0 1.34 0 0.68 0 0 Z " fill="#AED8D9" transform="translate(45,95)"/>
<path d="M0 0 C0.33 0 0.66 0 1 0 C1 14.52 1 29.04 1 44 C10.26611309 43.95432555 10.26611309 43.95432555 13.875 40.8125 C17.51446249 35.99556435 20.32644311 31.85744913 22 26 C22.33 26 22.66 26 23 26 C22.125 33.75 22.125 33.75 21 36 C20.34 36 19.68 36 19 36 C17.58622659 38.63904371 16.62759865 41.07120629 16 44 C17.98 43.505 17.98 43.505 20 43 C20.99 44.32 21.98 45.64 23 47 C25.97 46.505 25.97 46.505 29 46 C29 46.66 29 47.32 29 48 C30.88591255 49.45086944 30.88591255 49.45086944 33.25 50.875 C36.54771181 52.99384476 39.38402455 55.04281036 42 58 C41.505 58.99 41.505 58.99 41 60 C40.39671875 59.44570312 39.7934375 58.89140625 39.171875 58.3203125 C38.37265625 57.59585938 37.5734375 56.87140625 36.75 56.125 C35.56664062 55.04605469 35.56664062 55.04605469 34.359375 53.9453125 C32.26197262 52.2159973 30.52103337 50.98486229 28 50 C26.3247643 50.28718326 24.65919896 50.63128912 23 51 C21.43946678 51.10024259 19.87600659 51.15993819 18.3125 51.1875 C17.16201172 51.20876953 17.16201172 51.20876953 15.98828125 51.23046875 C14 51 14 51 12 49 C11.01 48.67 10.02 48.34 9 48 C9 47.34 9 46.68 9 46 C6.03 45.67 3.06 45.34 0 45 C0 30.15 0 15.3 0 0 Z " fill="#8997A8" transform="translate(124,62)"/>
<path d="M0 0 C2 2 2 2 2.24609566 4.32320595 C2.24425207 5.3021501 2.24240849 6.28109425 2.24050903 7.28970337 C2.24325836 8.41153519 2.24600769 9.533367 2.24884033 10.68919373 C2.24164978 11.9256514 2.23445923 13.16210907 2.22705078 14.43603516 C2.22734283 15.73355209 2.22763489 17.03106903 2.22793579 18.36790466 C2.228511 21.93177719 2.21672956 25.49551583 2.20278788 29.05935717 C2.19030851 32.78161985 2.18911223 36.5038854 2.18673706 40.22616577 C2.18051405 47.27744794 2.16409218 54.3286683 2.14403808 61.37992322 C2.12170456 69.40641037 2.11069207 77.43290043 2.10064721 85.45941091 C2.07972663 101.97297682 2.04453477 118.48648053 2 135 C1.01 134.67 0.02 134.34 -1 134 C-0.83799606 133.25594406 -0.67599213 132.51188812 -0.50907898 131.74528503 C0.20189356 126.51467264 0.14738996 121.34841316 0.14526367 116.07543945 C0.14862228 114.87969299 0.1519809 113.68394653 0.15544128 112.45196533 C0.16329396 109.18568448 0.16661756 105.91944185 0.16725707 102.6531527 C0.16796926 100.61182081 0.17010666 98.57049552 0.17275429 96.52916527 C0.1819908 89.40640211 0.18609085 82.28365762 0.18530273 75.16088867 C0.18470073 68.52157019 0.19528089 61.88233264 0.2110464 55.24303466 C0.2241098 49.53845154 0.22948722 43.83389493 0.22884732 38.12929696 C0.2285922 34.72380133 0.23145176 31.31837784 0.24202538 27.91289711 C0.25177667 24.12065431 0.24896701 20.32862285 0.24291992 16.53637695 C0.24853943 15.40644821 0.25415894 14.27651947 0.25994873 13.11235046 C0.25575424 12.08195648 0.25155975 11.0515625 0.24723816 9.98994446 C0.24778293 9.09345845 0.24832769 8.19697245 0.24888897 7.2733202 C0.1460243 4.71978075 0.1460243 4.71978075 -2 2 C-1.34 2 -0.68 2 0 2 C0 1.34 0 0.68 0 0 Z " fill="#96A3AF" transform="translate(15,25)"/>
<path d="M0 0 C0.66 0.33 1.32 0.66 2 1 C1.34 1.66 0.68 2.32 0 3 C-0.37420557 6.1045591 -0.37420557 6.1045591 -0.4140625 9.78125 C-0.43347397 10.4631691 -0.45288544 11.1450882 -0.47288513 11.84767151 C-0.53325689 14.06498582 -0.57945913 16.28233565 -0.625 18.5 C-0.66273892 20.00969914 -0.70106897 21.51938362 -0.73999023 23.02905273 C-0.99451186 33.35467031 -1.09305174 43.67125697 -1 54 C5.27 54.33 11.54 54.66 18 55 C18 46.09 18 37.18 18 28 C17.01 27.67 16.02 27.34 15 27 C16.32 27 17.64 27 19 27 C19 36.57 19 46.14 19 56 C11.74 56 4.48 56 -3 56 C-3.07398079 48.34621312 -3.12852205 40.69263288 -3.16479492 33.03857422 C-3.17991108 30.43306861 -3.20040432 27.82758856 -3.22631836 25.22216797 C-3.26257688 21.48398544 -3.27969798 17.74613835 -3.29296875 14.0078125 C-3.30845261 12.83695099 -3.32393646 11.66608948 -3.33988953 10.45974731 C-3.34011612 9.37877777 -3.34034271 8.29780823 -3.34057617 7.18408203 C-3.34723801 6.22921906 -3.35389984 5.27435608 -3.36076355 4.29055786 C-3.24171158 3.53467377 -3.12265961 2.77878967 -3 2 C-2.01 1.34 -1.02 0.68 0 0 Z " fill="#C0E2E4" transform="translate(41,27)"/>
<path d="M0 0 C5.35975773 0.1624169 9.14012947 3.61483129 13 7 C14.81198199 8.92958659 16.39255222 10.89022479 18 13 C15 13 15 13 12 12 C10.8125 9.9375 10.8125 9.9375 10 8 C9.236875 8.165 8.47375 8.33 7.6875 8.5 C5 9 5 9 2 9 C2 8.34 2 7.68 2 7 C1.34 7 0.68 7 0 7 C-0.66 8.32 -1.32 9.64 -2 11 C-2.99 10.34 -3.98 9.68 -5 9 C-5 8.34 -5 7.68 -5 7 C-5.66 6.67 -6.32 6.34 -7 6 C-7 5.34 -7 4.68 -7 4 C-7.66 3.67 -8.32 3.34 -9 3 C-8.67 2.34 -8.34 1.68 -8 1 C-6.865625 1.020625 -5.73125 1.04125 -4.5625 1.0625 C-1.18424326 1.41577477 -1.18424326 1.41577477 0 0 Z " fill="#3A5570" transform="translate(149,111)"/>
<path d="M0 0 C0.66 0 1.32 0 2 0 C2 4.95 2 9.9 2 15 C-5.26 15.33 -12.52 15.66 -20 16 C-20 16.99 -20 17.98 -20 19 C-25.93002267 19.37851209 -30.47239641 18.10575375 -36 16 C-36.66 17.32 -37.32 18.64 -38 20 C-38.99 19.01 -39.98 18.02 -41 17 C-41.66 17.66 -42.32 18.32 -43 19 C-43.99 19 -44.98 19 -46 19 C-45.67 17.35 -45.34 15.7 -45 14 C-29.82 14 -14.64 14 1 14 C0.67 9.38 0.34 4.76 0 0 Z " fill="#748190" transform="translate(100,28)"/>
<path d="M0 0 C0.88794754 -0.00637985 1.77589508 -0.0127597 2.69075012 -0.01933289 C4.14066597 -0.02100212 4.14066597 -0.02100212 5.61987305 -0.02270508 C6.60779343 -0.02603348 7.59571381 -0.02936188 8.61357117 -0.03279114 C10.70933566 -0.03786568 12.80510827 -0.0401993 14.90087891 -0.04003906 C18.10747656 -0.04221993 21.31372723 -0.0603546 24.52026367 -0.0793457 C26.55346562 -0.08228063 28.5866692 -0.08426476 30.61987305 -0.08520508 C32.06067986 -0.09598335 32.06067986 -0.09598335 33.53059387 -0.10697937 C34.42799789 -0.10390274 35.32540192 -0.10082611 36.25 -0.09765625 C37.03752151 -0.09908127 37.82504303 -0.10050629 38.63642883 -0.10197449 C40.8190918 0.14526367 40.8190918 0.14526367 44.8190918 2.14526367 C29.3090918 2.14526367 13.7990918 2.14526367 -2.1809082 2.14526367 C-2.5109082 10.39526367 -2.8409082 18.64526367 -3.1809082 27.14526367 C-0.2109082 27.47526367 2.7590918 27.80526367 5.8190918 28.14526367 C5.8190918 28.47526367 5.8190918 28.80526367 5.8190918 29.14526367 C4.21567624 29.48219152 2.61132625 29.8146746 1.0065918 30.14526367 C0.11327148 30.33088867 -0.78004883 30.51651367 -1.70043945 30.70776367 C-4.1809082 31.14526367 -4.1809082 31.14526367 -7.1809082 31.14526367 C-7.1809082 30.15526367 -7.1809082 29.16526367 -7.1809082 28.14526367 C-6.5209082 28.14526367 -5.8609082 28.14526367 -5.1809082 28.14526367 C-5.18614502 27.33259033 -5.19138184 26.51991699 -5.19677734 25.68261719 C-5.21747814 22.02434045 -5.23054623 18.366076 -5.2434082 14.70776367 C-5.25597656 12.78867188 -5.25597656 12.78867188 -5.26879883 10.83081055 C-5.27202148 9.61586914 -5.27524414 8.40092773 -5.27856445 7.14916992 C-5.28380127 6.02325439 -5.28903809 4.89733887 -5.29443359 3.73730469 C-5.11118499 -0.44667483 -3.77212284 0.01831351 0 0 Z " fill="#C3CAD2" transform="translate(87.180908203125,53.854736328125)"/>
<path d="M0 0 C0.66 0.33 1.32 0.66 2 1 C2.2038209 8.96033841 2.20198542 16.31716035 0 24 C-0.33660966 25.33250997 -0.67085458 26.66562667 -1 28 C2.27924407 29.93897212 4.85533219 30.29325528 8.640625 30.4140625 C10.24550781 30.47207031 10.24550781 30.47207031 11.8828125 30.53125 C13.54957031 30.57765625 13.54957031 30.57765625 15.25 30.625 C16.37664062 30.66367188 17.50328125 30.70234375 18.6640625 30.7421875 C21.44254548 30.83637336 24.22102334 30.92199586 27 31 C27 31.33 27 31.66 27 32 C16.44 32 5.88 32 -5 32 C-5 30.68 -5 29.36 -5 28 C-5.66 27.67 -6.32 27.34 -7 27 C-6 24 -6 24 -3.98046875 22.8046875 C-1.6188284 21.0299031 -1.6188284 21.0299031 -1.42578125 17.3828125 C-1.36877097 15.96418451 -1.33168437 14.54464344 -1.3125 13.125 C-1.04872107 4.34835566 -1.04872107 4.34835566 0 0 Z " fill="#1E1E38" transform="translate(61,155)"/>
<path d="M0 0 C0.66 0.33 1.32 0.66 2 1 C1.88088488 5.00203816 1.75658828 9.00388006 1.62768555 13.00561523 C1.58462706 14.3642958 1.54293435 15.72302041 1.50268555 17.08178711 C1.44427107 19.04552303 1.38038197 21.00909364 1.31640625 22.97265625 C1.27974854 24.15093994 1.24309082 25.32922363 1.20532227 26.54321289 C0.9956707 30.07288765 0.5478502 33.50818611 0 37 C0.66 37.33 1.32 37.66 2 38 C1.34 40.31 0.68 42.62 0 45 C0.66 45.33 1.32 45.66 2 46 C1.01 46.99 0.02 47.98 -1 49 C-1.79850746 46.18016894 -2.12994009 43.66540818 -2.14526367 40.73803711 C-2.15164352 39.90715073 -2.15802338 39.07626434 -2.16459656 38.22019958 C-2.16570938 37.33155716 -2.1668222 36.44291473 -2.16796875 35.52734375 C-2.17129715 34.60788467 -2.17462555 33.6884256 -2.17805481 32.74110413 C-2.18311087 30.80030822 -2.18546354 28.85950365 -2.18530273 26.91870117 C-2.18749447 23.94500531 -2.20567845 20.97167739 -2.22460938 17.99804688 C-2.22754248 16.11198044 -2.22952783 14.22591223 -2.23046875 12.33984375 C-2.23765427 11.44917709 -2.24483978 10.55851044 -2.25224304 9.64085388 C-2.24916641 8.81311966 -2.24608978 7.98538544 -2.24291992 7.13256836 C-2.24434494 6.40516953 -2.24576996 5.67777069 -2.24723816 4.92832947 C-2 3 -2 3 0 0 Z " fill="#78B9BB" transform="translate(19,27)"/>
<path d="M0 0 C6.93 0 13.86 0 21 0 C21.020625 2.805 21.04125 5.61 21.0625 8.5 C21.071604 9.36689453 21.08070801 10.23378906 21.09008789 11.12695312 C21.1078193 16.17411247 20.89088958 21.02446573 20 26 C19.34 26.33 18.68 26.66 18 27 C17.505 14.625 17.505 14.625 17 2 C12.05 2 7.1 2 2 2 C2.04125 3.4025 2.0825 4.805 2.125 6.25 C2.23999767 10.1599209 1.87184371 11.25631258 0 15 C0 10.05 0 5.1 0 0 Z " fill="#293045" transform="translate(103,62)"/>
<path d="M0 0 C2.31 0 4.62 0 7 0 C7 0.66 7 1.32 7 2 C8.65 1.67 10.3 1.34 12 1 C12 2.32 12 3.64 12 5 C13.32 5.33 14.64 5.66 16 6 C16 6.99 16 7.98 16 9 C16.99 9.33 17.98 9.66 19 10 C18.67 10.66 18.34 11.32 18 12 C18.9590625 12.37125 18.9590625 12.37125 19.9375 12.75 C22 14 22 14 22.75 16.125 C22.87375 17.053125 22.87375 17.053125 23 18 C22.43667969 17.71640625 21.87335938 17.4328125 21.29296875 17.140625 C19.764138 16.38011635 18.22478491 15.64040443 16.67578125 14.921875 C14.29805455 13.74283697 12.12814523 12.58964695 10 11 C8.9375 7.6875 8.9375 7.6875 9 5 C7.68 5.33 6.36 5.66 5 6 C5 5.34 5 4.68 5 4 C4.360625 3.71125 3.72125 3.4225 3.0625 3.125 C1 2 1 2 0 0 Z " fill="#4B6579" transform="translate(126,108)"/>
<path d="M0 0 C4.51617599 -0.07654536 8.59085217 -0.10228696 13 1 C13.33 1.99 13.66 2.98 14 4 C11.525 5.485 11.525 5.485 9 7 C10.98 7.99 12.96 8.98 15 10 C15 10.33 15 10.66 15 11 C12.36 11.33 9.72 11.66 7 12 C6.67 13.65 6.34 15.3 6 17 C5.67 15.68 5.34 14.36 5 13 C4.34 13 3.68 13 3 13 C3.33 10.69 3.66 8.38 4 6 C3.01 6 2.02 6 1 6 C1 5.34 1 4.68 1 4 C1.99 3.34 2.98 2.68 4 2 C2.68 1.34 1.36 0.68 0 0 Z " fill="#394C62" transform="translate(76,43)"/>
<path d="M0 0 C2.475 0.99 2.475 0.99 5 2 C5 2.66 5 3.32 5 4 C5.66 4 6.32 4 7 4 C7.33 4.66 7.66 5.32 8 6 C8.66 5.34 9.32 4.68 10 4 C11.60670684 7.21341369 10.82510855 10.62958968 10.5625 14.125 C10.51029297 14.87910156 10.45808594 15.63320313 10.40429688 16.41015625 C10.27454996 18.2737937 10.13792512 20.13694996 10 22 C9.67 22 9.34 22 9 22 C9 20.35 9 18.7 9 17 C7.68 17 6.36 17 5 17 C5 14.36 5 11.72 5 9 C3.35 9 1.7 9 0 9 C0 6.03 0 3.06 0 0 Z " fill="#62A0AB" transform="translate(28,23)"/>
<path d="M0 0 C0.99 0.495 0.99 0.495 2 1 C2.19683437 5.58298265 2.38085996 10.16639198 2.5625 14.75 C2.61857422 16.05195312 2.67464844 17.35390625 2.73242188 18.6953125 C2.78076172 19.94570312 2.82910156 21.19609375 2.87890625 22.484375 C2.9260376 23.63647461 2.97316895 24.78857422 3.02172852 25.97558594 C3.00277007 28.61443129 2.67255209 30.4902635 2 33 C1.90901905 34.77035203 1.86935252 36.54371926 1.8671875 38.31640625 C1.86589844 39.32767578 1.86460938 40.33894531 1.86328125 41.38085938 C1.86714844 42.43080078 1.87101562 43.48074219 1.875 44.5625 C1.87113281 45.61630859 1.86726563 46.67011719 1.86328125 47.75585938 C1.86457031 48.76583984 1.86585937 49.77582031 1.8671875 50.81640625 C1.86831543 51.73881104 1.86944336 52.66121582 1.87060547 53.61157227 C1.90244545 56.14807717 1.90244545 56.14807717 3 59 C2.0625 61.6875 2.0625 61.6875 1 64 C0.67 64 0.34 64 0 64 C0 42.88 0 21.76 0 0 Z " fill="#23293E" transform="translate(17,96)"/>
<path d="M0 0 C7.59 0 15.18 0 23 0 C23 1.65 23 3.3 23 5 C20 7 20 7 17 7 C16.34 7.66 15.68 8.32 15 9 C14.67 8.01 14.34 7.02 14 6 C13.34 6 12.68 6 12 6 C11.67 5.34 11.34 4.68 11 4 C8.42562419 3.08719862 8.42562419 3.08719862 5.4375 2.375 C4.42558594 2.11460938 3.41367187 1.85421875 2.37109375 1.5859375 C1.58863281 1.39257812 0.80617188 1.19921875 0 1 C0 0.67 0 0.34 0 0 Z " fill="#5B7783" transform="translate(21,21)"/>
<path d="M0 0 C1.32 0 2.64 0 4 0 C3.67 1.98 3.34 3.96 3 6 C3.66 6 4.32 6 5 6 C4.67 8.31 4.34 10.62 4 13 C4.66 13 5.32 13 6 13 C6.33 12.01 6.66 11.02 7 10 C8.02205943 13.06617828 8.38177334 15.72538486 8.6875 18.9375 C8.79449219 19.97777344 8.90148437 21.01804688 9.01171875 22.08984375 C8.99973396 25.06606765 8.56344533 26.51406202 7 29 C6.34 29 5.68 29 5 29 C4.67 29.99 4.34 30.98 4 32 C3.95101562 30.90042969 3.90203125 29.80085938 3.8515625 28.66796875 C3.37286406 18.88456947 2.43924727 9.51742015 0 0 Z " fill="#5D8291" transform="translate(148,128)"/>
<path d="M0 0 C0.99 0 1.98 0 3 0 C4.21345209 13.32630426 4.10315631 26.62935544 4 40 C3.67 40 3.34 40 3 40 C2.98018066 39.43490723 2.96036133 38.86981445 2.93994141 38.28759766 C2.84481764 35.73292003 2.73508942 33.17907459 2.625 30.625 C2.5940625 29.73554688 2.563125 28.84609375 2.53125 27.9296875 C2.49257812 27.07890625 2.45390625 26.228125 2.4140625 25.3515625 C2.3826416 24.56604004 2.3512207 23.78051758 2.31884766 22.97119141 C2.1600535 20.76997061 2.1600535 20.76997061 0 19 C-0.4140625 16.3984375 -0.4140625 16.3984375 -0.625 13.375 C-0.69976562 12.37210938 -0.77453125 11.36921875 -0.8515625 10.3359375 C-0.90054688 9.56507813 -0.94953125 8.79421875 -1 8 C-1.33 8 -1.66 8 -2 8 C-2.20086443 4.28400809 -2.1519437 3.22791555 0 0 Z " fill="#687D88" transform="translate(79,136)"/>
<path d="M0 0 C0.66 0.33 1.32 0.66 2 1 C1.34 2.98 0.68 4.96 0 7 C8.415 6.505 8.415 6.505 17 6 C17 5.67 17 5.34 17 5 C18.8871875 5.1546875 18.8871875 5.1546875 20.8125 5.3125 C22.99141323 5.39581568 22.99141323 5.39581568 25 5 C27.08216876 2.6450037 27.08216876 2.6450037 28 0 C28.99 0.33 29.98 0.66 31 1 C31.38133299 2.9914056 31.71325582 4.99279077 32 7 C31 8 31 8 27.94897461 8.11352539 C26.60008729 8.11336634 25.25119386 8.10767612 23.90234375 8.09765625 C22.83905602 8.09553383 22.83905602 8.09553383 21.75428772 8.09336853 C19.48198288 8.08775443 17.20977525 8.07519963 14.9375 8.0625 C13.40039204 8.05748681 11.86328255 8.05292359 10.32617188 8.04882812 C6.55074358 8.03778042 2.77538829 8.02050641 -1 8 C-1.04241723 5.66705225 -1.04092937 3.33297433 -1 1 C-0.67 0.67 -0.34 0.34 0 0 Z " fill="#8CB8BA" transform="translate(98,160)"/>
<path d="M0 0 C3.3 0 6.6 0 10 0 C10.33 1.32 10.66 2.64 11 4 C11.66 4.66 12.32 5.32 13 6 C13.33 6.66 13.66 7.32 14 8 C16.01669827 9.13350534 16.01669827 9.13350534 18 10 C13.23692563 10.95261487 8.8333472 11.08333357 4 11 C4 10.67 4 10.34 4 10 C5.65 9.67 7.3 9.34 9 9 C9 8.34 9 7.68 9 7 C7.35 7 5.7 7 4 7 C4 6.01 4 5.02 4 4 C2.35 3.67 0.7 3.34 -1 3 C-0.67 2.01 -0.34 1.02 0 0 Z " fill="#49677A" transform="translate(100,177)"/>
<path d="M0 0 C1.984375 0.98828125 1.984375 0.98828125 4 3 C4.29561076 5.87038052 4.37943016 8.33754745 4.25 11.1875 C4.23195313 11.93708984 4.21390625 12.68667969 4.1953125 13.45898438 C4.14824109 15.3065371 4.07649766 17.15343159 4 19 C4.66 19.33 5.32 19.66 6 20 C4.68 20.33 3.36 20.66 2 21 C-1.36994752 17.46155511 -1.35043722 14.71328988 -1.25 9.9375 C-1.23453125 8.70902344 -1.2190625 7.48054687 -1.203125 6.21484375 C-1 3 -1 3 0 0 Z " fill="#374B62" transform="translate(78,157)"/>
<path d="M0 0 C3.96 0 7.92 0 12 0 C12 0.33 12 0.66 12 1 C10.02 1 8.04 1 6 1 C3.95101713 5.21896866 3.78792003 8.65372146 3.875 13.3125 C3.89304688 14.56675781 3.91109375 15.82101563 3.9296875 17.11328125 C3.95289063 18.06589844 3.97609375 19.01851562 4 20 C1 18 1 18 0.31640625 15.80078125 C-0.04832917 12.57219737 -0.09531656 9.43633957 -0.0625 6.1875 C-0.05347656 5.02605469 -0.04445312 3.86460938 -0.03515625 2.66796875 C-0.02355469 1.78753906 -0.01195312 0.90710938 0 0 Z " fill="#90C4C6" transform="translate(59,106)"/>
<path d="M0 0 C0.33 0.66 0.66 1.32 1 2 C-1.64 2.33 -4.28 2.66 -7 3 C-6.01 3.66 -5.02 4.32 -4 5 C-3.59156077 7.71203652 -3.86663133 10.2437142 -4 13 C-5.65 13.33 -7.3 13.66 -9 14 C-9 11.03 -9 8.06 -9 5 C-9.763125 5.061875 -10.52625 5.12375 -11.3125 5.1875 C-14 5 -14 5 -15.8125 3.5 C-16.204375 3.005 -16.59625 2.51 -17 2 C-13.43928688 0.95117609 -9.94472103 0.69613047 -6.25 0.4375 C-4.49429688 0.31181641 -4.49429688 0.31181641 -2.703125 0.18359375 C-1.81109375 0.12300781 -0.9190625 0.06242187 0 0 Z " fill="#6A9AA4" transform="translate(101,82)"/>
<path d="M0 0 C2.22909871 -0.02714735 4.45829367 -0.04646254 6.6875 -0.0625 C7.92886719 -0.07410156 9.17023438 -0.08570312 10.44921875 -0.09765625 C13.46235454 -0.01478673 16.08275339 0.29160551 19 1 C19 1.33 19 1.66 19 2 C17.85660156 2.04898437 16.71320313 2.09796875 15.53515625 2.1484375 C14.04424527 2.22345189 12.55336108 2.29900028 11.0625 2.375 C9.93038086 2.42140625 9.93038086 2.42140625 8.77539062 2.46875 C6.84492605 2.5726315 4.92057919 2.77895614 3 3 C2.67 3.66 2.34 4.32 2 5 C2.78375 5.2475 3.5675 5.495 4.375 5.75 C7 7 7 7 8.375 8.625 C9.3630576 12.3796189 8.79834905 15.19248916 8 19 C7.01 19.66 6.02 20.32 5 21 C4.96132812 19.75283203 4.96132812 19.75283203 4.921875 18.48046875 C4.86515625 17.39378906 4.8084375 16.30710937 4.75 15.1875 C4.70359375 14.10855469 4.6571875 13.02960937 4.609375 11.91796875 C4.31294488 8.88001117 4.31294488 8.88001117 1.953125 7.48828125 C1.30859375 6.99714844 0.6640625 6.50601562 0 6 C-0.25 2.8125 -0.25 2.8125 0 0 Z " fill="#1C1D32" transform="translate(98,20)"/>
<path d="M0 0 C1.32 0 2.64 0 4 0 C3.67 1.32 3.34 2.64 3 4 C2.67 3.67 2.34 3.34 2 3 C1.67 3.66 1.34 4.32 1 5 C1.99 5.33 2.98 5.66 4 6 C4 6.99 4 7.98 4 9 C13.57 9.33 23.14 9.66 33 10 C33 10.33 33 10.66 33 11 C28.64009127 11.07418046 24.28051721 11.12861544 19.92016602 11.16479492 C18.43702801 11.17987768 16.95393456 11.20034689 15.47094727 11.22631836 C13.33859255 11.26272616 11.20682765 11.27973073 9.07421875 11.29296875 C7.79119873 11.3086792 6.50817871 11.32438965 5.1862793 11.34057617 C2 11 2 11 0.07348633 9.6730957 C-1.56605885 7.11776182 -1.25171265 4.95762369 -1 2 C-0.67 1.34 -0.34 0.68 0 0 Z " fill="#38374A" transform="translate(53,177)"/>
<path d="M0 0 C1 3 1 3 0.00390625 5.48046875 C-0.47175781 6.37378906 -0.94742188 7.26710937 -1.4375 8.1875 C-2.14712891 9.53908203 -2.14712891 9.53908203 -2.87109375 10.91796875 C-3.24363281 11.60503906 -3.61617187 12.29210937 -4 13 C-4.66 13 -5.32 13 -6 13 C-6 12.01 -6 11.02 -6 10 C-6.99 10.33 -7.98 10.66 -9 11 C-9.33 9.02 -9.66 7.04 -10 5 C-8.9171875 4.87625 -8.9171875 4.87625 -7.8125 4.75 C-4.44686746 3.85249799 -2.58387184 2.2885722 0 0 Z " fill="#669AA8" transform="translate(173,156)"/>
<path d="M0 0 C0.33 0.66 0.66 1.32 1 2 C1.66 2 2.32 2 3 2 C3.99 3.98 4.98 5.96 6 8 C9.465 7.505 9.465 7.505 13 7 C10.42595029 10.86107457 8.38979741 10.94319692 4 12 C3.401875 11.34 2.80375 10.68 2.1875 10 C0.12498166 7.6626154 0.12498166 7.6626154 -3 8 C-2.45276317 4.62537285 -1.9451 2.91765 0 0 Z " fill="#37435B" transform="translate(143,98)"/>
<path d="M0 0 C9.90243902 -0.34146341 9.90243902 -0.34146341 14 2 C15.14346215 4.69373294 15.52797235 7.07342857 16 10 C13.1875 9.8125 13.1875 9.8125 10 9 C8.14766715 6.59196729 7 5.07258075 7 2 C4.69 1.67 2.38 1.34 0 1 C0 0.67 0 0.34 0 0 Z " fill="#5D9AA7" transform="translate(112,176)"/>
<path d="M0 0 C6.01370182 0.37585636 10.6460739 4.49329504 14.625 8.73046875 C15.78865062 10.12222133 16.90056043 11.55698557 18 13 C15 13 15 13 12 12 C10.8125 9.9375 10.8125 9.9375 10 8 C9.01 8.33 8.02 8.66 7 9 C4 4.25 4 4.25 4 2 C2.35 2 0.7 2 -1 2 C-0.67 1.34 -0.34 0.68 0 0 Z " fill="#303C4F" transform="translate(149,111)"/>
<path d="M0 0 C0.33 0 0.66 0 1 0 C0.125 7.75 0.125 7.75 -1 10 C-1.66 10 -2.32 10 -3 10 C-4.67110042 12.96178773 -5.32682752 15.37071192 -5.625 18.75 C-5.73714844 19.94882813 -5.73714844 19.94882813 -5.8515625 21.171875 C-5.90054688 21.77515625 -5.94953125 22.3784375 -6 23 C-8.31 22.67 -10.62 22.34 -13 22 C-13 21.34 -13 20.68 -13 20 C-12.195625 19.773125 -11.39125 19.54625 -10.5625 19.3125 C-9.716875 18.879375 -8.87125 18.44625 -8 18 C-7.62127066 16.34305915 -7.29749946 14.67343448 -7 13 C-5.91015625 11.328125 -5.91015625 11.328125 -4.5625 9.5625 C-2.25680644 6.52378248 -0.99700101 3.71609467 0 0 Z " fill="#8892A0" transform="translate(146,88)"/>
<path d="M0 0 C0.33 0 0.66 0 1 0 C1 7.92 1 15.84 1 24 C0.01 24 -0.98 24 -2 24 C-2.02685095 21.52076199 -2.04676547 19.0418116 -2.0625 16.5625 C-2.07506836 15.50192383 -2.07506836 15.50192383 -2.08789062 14.41992188 C-2.09653588 12.61306441 -2.05220011 10.80612397 -2 9 C-1.67 8.67 -1.34 8.34 -1 8 C-0.76924918 6.65252916 -0.58846937 5.29622435 -0.4375 3.9375 C-0.293125 2.638125 -0.14875 1.33875 0 0 Z " fill="#404F61" transform="translate(123,80)"/>
<path d="M0 0 C0.33 0 0.66 0 1 0 C1.33 8.58 1.66 17.16 2 26 C4.97 26.33 7.94 26.66 11 27 C11 27.33 11 27.66 11 28 C9.39658445 28.33692785 7.79223445 28.66941093 6.1875 29 C5.29417969 29.185625 4.40085937 29.37125 3.48046875 29.5625 C1 30 1 30 -2 30 C-2 29.01 -2 28.02 -2 27 C-1.34 27 -0.68 27 0 27 C0 18.09 0 9.18 0 0 Z " fill="#98BAC0" transform="translate(82,55)"/>
<path d="M0 0 C0.33 0.99 0.66 1.98 1 3 C3.97 3.495 3.97 3.495 7 4 C7 5.98 7 7.96 7 10 C4.125 10.125 4.125 10.125 1 10 C-1 8 -1 8 -1.1875 4.4375 C-1 1 -1 1 0 0 Z " fill="#648F98" transform="translate(53,44)"/>
<path d="M0 0 C0.99 0 1.98 0 3 0 C3 12.21 3 24.42 3 37 C2.01 37 1.02 37 0 37 C0 24.66666667 0 12.33333333 0 0 Z " fill="#7BBABD" transform="translate(121,125)"/>
<path d="M0 0 C0.8353125 0.37125 0.8353125 0.37125 1.6875 0.75 C2.06968767 2.40614657 2.40145102 4.07457024 2.6875 5.75 C1.6875 6.75 1.6875 6.75 -0.59765625 6.84765625 C-1.97244141 6.83025391 -1.97244141 6.83025391 -3.375 6.8125 C-4.29410156 6.80347656 -5.21320312 6.79445312 -6.16015625 6.78515625 C-6.87042969 6.77355469 -7.58070312 6.76195312 -8.3125 6.75 C-6.99035643 2.78356928 -4.51439587 -0.4880428 0 0 Z " fill="#373647" transform="translate(42.3125,161.25)"/>
<path d="M0 0 C2.8125 0.125 2.8125 0.125 6 1 C6.433125 1.969375 6.86625 2.93875 7.3125 3.9375 C8.64408032 7.13144622 8.64408032 7.13144622 11.1796875 7.83984375 C13.45095687 8.32452273 15.69505321 8.71973393 18 9 C18 9.66 18 10.32 18 11 C16.741875 11.04125 15.48375 11.0825 14.1875 11.125 C13.47980469 11.14820313 12.77210937 11.17140625 12.04296875 11.1953125 C10 11 10 11 7 9 C6.34 8.67 5.68 8.34 5 8 C5 6.68 5 5.36 5 4 C3.02 3.34 1.04 2.68 -1 2 C-0.67 1.34 -0.34 0.68 0 0 Z " fill="#5D8A97" transform="translate(113,177)"/>
<path d="M0 0 C2.56780471 3.8415976 2.22688882 7.8139175 2.125 12.25 C2.11597656 12.99507812 2.10695313 13.74015625 2.09765625 14.5078125 C2.07418358 16.33868059 2.03831525 18.16938238 2 20 C0.00449854 18.00449854 -0.81376393 16.52075165 -2 14 C-2.37125 13.2575 -2.7425 12.515 -3.125 11.75 C-3.41375 11.1725 -3.7025 10.595 -4 10 C-3.01 9.34 -2.02 8.68 -1 8 C-0.42251197 6.03638136 -0.42251197 6.03638136 -0.3125 3.875 C-0.209375 2.59625 -0.10625 1.3175 0 0 Z " fill="#557886" transform="translate(80,56)"/>
<path d="M0 0 C4.51617599 -0.07654536 8.59085217 -0.10228696 13 1 C13.33 1.99 13.66 2.98 14 4 C11.4345406 6.5654594 9.52313332 6.54046087 6 7 C6.33 6.01 6.66 5.02 7 4 C6.01 3.67 5.02 3.34 4 3 C2.64377755 2.03126968 1.30582947 1.03565785 0 0 Z " fill="#303F58" transform="translate(76,43)"/>
<path d="M0 0 C5.45769811 -0.11138159 10.61509359 0.08342019 16 1 C16.625 3.3125 16.625 3.3125 17 6 C16.01 7.485 16.01 7.485 15 9 C14.67 8.01 14.34 7.02 14 6 C13.34 6 12.68 6 12 6 C11.67 5.34 11.34 4.68 11 4 C8.42562419 3.08719862 8.42562419 3.08719862 5.4375 2.375 C4.42558594 2.11460938 3.41367187 1.85421875 2.37109375 1.5859375 C1.58863281 1.39257812 0.80617188 1.19921875 0 1 C0 0.67 0 0.34 0 0 Z " fill="#588694" transform="translate(21,21)"/>
<path d="M0 0 C5.94 0 11.88 0 18 0 C18.33 0.66 18.66 1.32 19 2 C18.34 2.66 17.68 3.32 17 4 C14.69 3.01 12.38 2.02 10 1 C9.67 1.66 9.34 2.32 9 3 C6.03 3 3.06 3 0 3 C0 2.01 0 1.02 0 0 Z " fill="#76BABC" transform="translate(41,84)"/>
<path d="M0 0 C0.99 0.33 1.98 0.66 3 1 C4.1875 3.5625 4.1875 3.5625 5 6 C6.98 6 8.96 6 11 6 C11 6.33 11 6.66 11 7 C6.71 7 2.42 7 -2 7 C-2 2 -2 2 0 0 Z " fill="#5B8590" transform="translate(100,160)"/>
<path d="M0 0 C5.61 0 11.22 0 17 0 C17 0.66 17 1.32 17 2 C14.0751367 2.84191782 11.49258344 3.11819313 8.453125 3.09765625 C7.60878906 3.09443359 6.76445313 3.09121094 5.89453125 3.08789062 C5.02183594 3.07951172 4.14914063 3.07113281 3.25 3.0625 C1.91775391 3.05573242 1.91775391 3.05573242 0.55859375 3.04882812 C-1.62767329 3.037074 -3.81380179 3.02064249 -6 3 C-6 2.67 -6 2.34 -6 2 C-4.02 2 -2.04 2 0 2 C0 1.34 0 0.68 0 0 Z " fill="#7DB6B7" transform="translate(45,95)"/>
<path d="M0 0 C1.0209375 0.2165625 1.0209375 0.2165625 2.0625 0.4375 C5.36273082 1.06945909 8.67144426 1.54313941 12 2 C12 2.99 12 3.98 12 5 C8.04 5 4.08 5 0 5 C0 3.35 0 1.7 0 0 Z " fill="#1E1C30" transform="translate(12,163)"/>
<path d="M0 0 C0.33 0 0.66 0 1 0 C1.33 8.91 1.66 17.82 2 27 C0.68 26.34 -0.64 25.68 -2 25 C-1.835 24.17886719 -1.67 23.35773438 -1.5 22.51171875 C-0.94089705 18.58489409 -0.92713637 14.76535175 -1 10.8125 C-1.13435082 3.40305245 -1.13435082 3.40305245 0 0 Z " fill="#1A1B32" transform="translate(37,135)"/>
<path d="M0 0 C0.33 0 0.66 0 1 0 C1.33 2.31 1.66 4.62 2 7 C2.33 7 2.66 7 3 7 C3.06058594 7.89203125 3.12117188 8.7840625 3.18359375 9.703125 C3.26738281 10.87359375 3.35117188 12.0440625 3.4375 13.25 C3.55931641 14.99023438 3.55931641 14.99023438 3.68359375 16.765625 C3.93247787 19.30977376 4.28114942 21.55953248 5 24 C4.34 24 3.68 24 3 24 C3 23.01 3 22.02 3 21 C2.01 20.67 1.02 20.34 0 20 C0 13.4 0 6.8 0 0 Z " fill="#6DB5B9" transform="translate(103,136)"/>
<path d="M0 0 C4.95 0 9.9 0 15 0 C15 0.66 15 1.32 15 2 C12.00519083 2.8723412 9.36424089 3.10829766 6.25 3.0625 C5.45078125 3.05347656 4.6515625 3.04445312 3.828125 3.03515625 C3.22484375 3.02355469 2.6215625 3.01195312 2 3 C1.67 3.66 1.34 4.32 1 5 C0.67 3.35 0.34 1.7 0 0 Z " fill="#191B31" transform="translate(124,43)"/>
<path d="M0 0 C1.093125 0.0825 2.18625 0.165 3.3125 0.25 C3.3125 1.24 3.3125 2.23 3.3125 3.25 C0.66511084 4.7106285 -0.58198334 5.25 -3.6875 5.25 C-4.3475 6.24 -5.0075 7.23 -5.6875 8.25 C-6.375 6.5 -6.375 6.5 -6.6875 4.25 C-5.02756724 0.51515129 -4.13582103 0.28039465 0 0 Z " fill="#49485E" transform="translate(16.6875,159.75)"/>
<path d="M0 0 C1.32 0 2.64 0 4 0 C4.53341184 1.57914015 5.05125763 3.16354387 5.5625 4.75 C5.85253906 5.63171875 6.14257812 6.5134375 6.44140625 7.421875 C7.01697435 10.07834316 6.89248371 11.47031106 6 14 C5.67 12.35 5.34 10.7 5 9 C4.34 9 3.68 9 3 9 C3 8.34 3 7.68 3 7 C2.01 7.33 1.02 7.66 0 8 C0 7.01 0 6.02 0 5 C0.66 5 1.32 5 2 5 C2 3.68 2 2.36 2 1 C1.34 0.67 0.68 0.34 0 0 Z " fill="#3C495C" transform="translate(166,127)"/>
<path d="M0 0 C0.99 0 1.98 0 3 0 C3 4.62 3 9.24 3 14 C2.01 13.34 1.02 12.68 0 12 C-0.29296875 9.1796875 -0.29296875 9.1796875 -0.1875 5.875 C-0.16042969 4.77929688 -0.13335937 3.68359375 -0.10546875 2.5546875 C-0.07066406 1.71164063 -0.03585938 0.86859375 0 0 Z " fill="#699BA3" transform="translate(60,112)"/>
<path d="M0 0 C0.66 0 1.32 0 2 0 C2 0.99 2 1.98 2 3 C5.63 3 9.26 3 13 3 C13 3.33 13 3.66 13 4 C9.37 4 5.74 4 2 4 C2.33 5.98 2.66 7.96 3 10 C0.525 9.01 0.525 9.01 -2 8 C-1.34 5.36 -0.68 2.72 0 0 Z " fill="#628395" transform="translate(122,104)"/>
<path d="M0 0 C1.81171098 0.15306901 3.6283794 0.24946661 5.4453125 0.31640625 C6.52167969 0.35830078 7.59804687 0.40019531 8.70703125 0.44335938 C10.39892578 0.50233398 10.39892578 0.50233398 12.125 0.5625 C13.26066406 0.60568359 14.39632812 0.64886719 15.56640625 0.69335938 C18.37747768 0.7996604 21.18863945 0.90169405 24 1 C24 1.33 24 1.66 24 2 C13.44 2 2.88 2 -8 2 C-8 1.67 -8 1.34 -8 1 C-2.25 -1.125 -2.25 -1.125 0 0 Z " fill="#171830" transform="translate(64,185)"/>
<path d="M0 0 C1.32 0 2.64 0 4 0 C4 2.64 4 5.28 4 8 C4.66 8.33 5.32 8.66 6 9 C4.68 9.33 3.36 9.66 2 10 C-0.05619793 7.68677733 -0.95899829 6.44076838 -1.25 3.3125 C-1 1 -1 1 0 0 Z " fill="#2D3850" transform="translate(78,168)"/>
<path d="M0 0 C0.33 0 0.66 0 1 0 C1.24942657 2.24784424 1.47383488 4.49847506 1.6875 6.75 C1.87892578 8.62945312 1.87892578 8.62945312 2.07421875 10.546875 C1.99485632 14.23931642 1.53835868 15.41596392 -1 18 C-1.02690844 15.37493198 -1.04679404 12.75013827 -1.0625 10.125 C-1.07087891 9.37863281 -1.07925781 8.63226563 -1.08789062 7.86328125 C-1.11328125 2.2265625 -1.11328125 2.2265625 0 0 Z " fill="#364758" transform="translate(61,142)"/>
<path d="M0 0 C2 2 4 4 6 6 C5.67 6.99 5.34 7.98 5 9 C2.9375 9.6875 2.9375 9.6875 1 10 C-0.83691257 6.21812119 -1.15837626 4.05431692 0 0 Z " fill="#252E4C" transform="translate(147,97)"/>
<path d="M0 0 C0.99 0 1.98 0 3 0 C3.66 0.66 4.32 1.32 5 2 C4.9765625 4.3828125 4.9765625 4.3828125 4.625 7.125 C4.51414062 8.03507812 4.40328125 8.94515625 4.2890625 9.8828125 C4.19367188 10.58148438 4.09828125 11.28015625 4 12 C3.01 11.67 2.02 11.34 1 11 C0.67 7.37 0.34 3.74 0 0 Z " fill="#6CA3A9" transform="translate(102,98)"/>
<path d="M0 0 C0.66 0 1.32 0 2 0 C3.47378188 4.91260625 3.01248139 10.02563491 2 15 C1.34 15.66 0.68 16.32 0 17 C0 11.39 0 5.78 0 0 Z " fill="#81BABB" transform="translate(60,64)"/>
<path d="M0 0 C2 2 2 2 2.22705078 4.70556641 C2.21657715 5.82624512 2.20610352 6.94692383 2.1953125 8.1015625 C2.18886719 9.31328125 2.18242187 10.525 2.17578125 11.7734375 C2.15902344 13.04445313 2.14226563 14.31546875 2.125 15.625 C2.11597656 16.90375 2.10695313 18.1825 2.09765625 19.5 C2.07402303 22.66685167 2.04107629 25.83333424 2 29 C1.67 29 1.34 29 1 29 C0.98018066 28.2886792 0.96036133 27.5773584 0.93994141 26.84448242 C0.84475133 23.62511184 0.73504771 20.4063955 0.625 17.1875 C0.57859375 15.50817383 0.57859375 15.50817383 0.53125 13.79492188 C0.49257812 12.72177734 0.45390625 11.64863281 0.4140625 10.54296875 C0.3826416 9.55321045 0.3512207 8.56345215 0.31884766 7.54370117 C0.16226567 4.75924906 0.16226567 4.75924906 -2 2 C-1.34 2 -0.68 2 0 2 C0 1.34 0 0.68 0 0 Z " fill="#A7D6D6" transform="translate(15,25)"/>
<path d="M0 0 C0.66 0.33 1.32 0.66 2 1 C2.09765625 7.15234375 2.09765625 7.15234375 2 9 C1.67 9.33 1.34 9.66 1 10 C0.76636119 11.84891946 0.58696365 13.70488031 0.4375 15.5625 C0.35371094 16.57441406 0.26992188 17.58632812 0.18359375 18.62890625 C0.12300781 19.41136719 0.06242187 20.19382813 0 21 C-0.33 21 -0.66 21 -1 21 C-1.02710123 18.4374282 -1.04688771 15.87514635 -1.0625 13.3125 C-1.07087891 12.59126953 -1.07925781 11.87003906 -1.08789062 11.12695312 C-1.10543632 7.28444618 -0.93524221 3.73360474 0 0 Z " fill="#272B42" transform="translate(61,155)"/>
<path d="M0 0 C0.99 0 1.98 0 3 0 C3 2.64 3 5.28 3 8 C1.35 8 -0.3 8 -2 8 C-2.20086443 4.28400809 -2.1519437 3.22791555 0 0 Z " fill="#5D8F9A" transform="translate(79,136)"/>
<path d="M0 0 C1 3 1 3 0.00390625 5.48046875 C-0.47175781 6.37378906 -0.94742188 7.26710937 -1.4375 8.1875 C-1.91058594 9.08855469 -2.38367188 9.98960937 -2.87109375 10.91796875 C-3.24363281 11.60503906 -3.61617187 12.29210937 -4 13 C-4.66 13 -5.32 13 -6 13 C-5.67 11.68 -5.34 10.36 -5 9 C-4.34 9 -3.68 9 -3 9 C-3.061875 8.071875 -3.12375 7.14375 -3.1875 6.1875 C-3 3 -3 3 -1.5 1.125 C-1.005 0.75375 -0.51 0.3825 0 0 Z " fill="#7F9CA4" transform="translate(173,156)"/>
<path d="M0 0 C2.89054652 2.89054652 2.99283448 4.72169133 3.09765625 8.79296875 C3.09102785 10.25784438 3.07913087 11.72270378 3.0625 13.1875 C3.05798828 13.93708984 3.05347656 14.68667969 3.04882812 15.45898438 C3.03706354 17.30602383 3.01912865 19.15302213 3 21 C2.67 21 2.34 21 2 21 C1.67 18.69 1.34 16.38 1 14 C0.67 14 0.34 14 0 14 C-0.08226668 10.95613276 0.02391783 8.92824652 1 6 C0.72428861 3.99124558 0.39764263 1.98821313 0 0 Z " fill="#586673" transform="translate(171,131)"/>
<path d="M0 0 C0.91007812 0.00902344 1.82015625 0.01804688 2.7578125 0.02734375 C3.45648438 0.03894531 4.15515625 0.05054688 4.875 0.0625 C3.885 0.5575 3.885 0.5575 2.875 1.0625 C1.74149466 3.07919827 1.74149466 3.07919827 0.875 5.0625 C-0.115 4.0725 -1.105 3.0825 -2.125 2.0625 C-2.785 2.7225 -3.445 3.3825 -4.125 4.0625 C-5.115 4.0625 -6.105 4.0625 -7.125 4.0625 C-7.125 3.0725 -7.125 2.0825 -7.125 1.0625 C-4.60024538 -0.19987731 -2.81299534 -0.03606404 0 0 Z " fill="#587783" transform="translate(61.125,42.9375)"/>
<path d="M0 0 C0.33 0 0.66 0 1 0 C1 2.64 1 5.28 1 8 C2.98 8.495 2.98 8.495 5 9 C4.34 10.32 3.68 11.64 3 13 C2.34 13 1.68 13 1 13 C0.67 13.99 0.34 14.98 0 16 C0 10.72 0 5.44 0 0 Z " fill="#73A3AC" transform="translate(152,144)"/>
<path d="M0 0 C0.90895417 3.63581666 1.32210304 6.29581502 1 10 C0.01 10.66 -0.98 11.32 -2 12 C-4.6875 11.125 -4.6875 11.125 -7 10 C-7 9.67 -7 9.34 -7 9 C-5.35 8.67 -3.7 8.34 -2 8 C-1.34 5.36 -0.68 2.72 0 0 Z " fill="#4D6777" transform="translate(104,75)"/>
<path d="M0 0 C2.90975956 2.40371442 3.64375394 4.25941633 4 8 C3.5625 10.8125 3.5625 10.8125 3 13 C2.34 13 1.68 13 1 13 C-0.10228696 8.59085217 -0.07654536 4.51617599 0 0 Z " fill="#5D8F99" transform="translate(17,72)"/>
<path d="M0 0 C2.0877193 3.43859649 2.0877193 3.43859649 1.6875 6 C1.3471875 6.99 1.3471875 6.99 1 8 C0.814375 8.7425 0.62875 9.485 0.4375 10.25 C0.293125 10.8275 0.14875 11.405 0 12 C-0.66 12 -1.32 12 -2 12 C-2.05395478 10.37536158 -2.09277195 8.75021459 -2.125 7.125 C-2.14820313 6.22007813 -2.17140625 5.31515625 -2.1953125 4.3828125 C-2 2 -2 2 0 0 Z " fill="#6E999F" transform="translate(62,52)"/>
<path d="M0 0 C2.97 0.495 2.97 0.495 6 1 C6 1.99 6 2.98 6 4 C5.01 4 4.02 4 3 4 C3 4.66 3 5.32 3 6 C2.01 6 1.02 6 0 6 C0 4.02 0 2.04 0 0 Z " fill="#83B9BA" transform="translate(12,21)"/>
<path d="M0 0 C1.32 0 2.64 0 4 0 C7 4.07142857 7 4.07142857 7 7 C5.68 7 4.36 7 3 7 C2.67 6.34 2.34 5.68 2 5 C1.34 4.67 0.68 4.34 0 4 C0 2.68 0 1.36 0 0 Z " fill="#344762" transform="translate(149,113)"/>
<path d="M0 0 C1.32 0 2.64 0 4 0 C3.67 1.98 3.34 3.96 3 6 C3.66 6 4.32 6 5 6 C4.67 8.97 4.34 11.94 4 15 C3.67 15 3.34 15 3 15 C2.86722656 14.25234375 2.73445312 13.5046875 2.59765625 12.734375 C2.42105469 11.74953125 2.24445313 10.7646875 2.0625 9.75 C1.88847656 8.77546875 1.71445313 7.8009375 1.53515625 6.796875 C1.09620271 4.50278205 0.59651408 2.25708029 0 0 Z " fill="#7A909A" transform="translate(148,128)"/>
<path d="M0 0 C0.33 0 0.66 0 1 0 C1 4.62 1 9.24 1 14 C0.01 14 -0.98 14 -2 14 C-2 11.69 -2 9.38 -2 7 C-1.67 7 -1.34 7 -1 7 C-0.67 4.69 -0.34 2.38 0 0 Z " fill="#71ADB1" transform="translate(81,122)"/>
<path d="M0 0 C0.33 0 0.66 0 1 0 C1 4.29 1 8.58 1 13 C0.01 13 -0.98 13 -2 13 C-2 10.69 -2 8.38 -2 6 C-1.34 6 -0.68 6 0 6 C0 4.02 0 2.04 0 0 Z " fill="#4D6473" transform="translate(123,91)"/>
<path d="M0 0 C1.98 0.495 1.98 0.495 4 1 C4 3.31 4 5.62 4 8 C3.34 8 2.68 8 2 8 C1.67 7.34 1.34 6.68 1 6 C0.34 6.66 -0.32 7.32 -1 8 C-0.7525 7.1028125 -0.7525 7.1028125 -0.5 6.1875 C0.1114124 3.88655664 0.1114124 3.88655664 0 1 C0 0.67 0 0.34 0 0 Z " fill="#588292" transform="translate(34,96)"/>
<path d="M0 0 C0.99 0 1.98 0 3 0 C4.125 5.75 4.125 5.75 3 8 C2.01 8 1.02 8 0 8 C0 5.36 0 2.72 0 0 Z " fill="#5B9DA9" transform="translate(33,88)"/>
<path d="M0 0 C3.91586149 2.61057433 4.00639127 4.49054499 5 9 C5.125 11.9375 5.125 11.9375 5 14 C4.67 12.68 4.34 11.36 4 10 C3.34 10 2.68 10 2 10 C2 8.35 2 6.7 2 5 C1.01 5 0.02 5 -1 5 C-0.67 3.35 -0.34 1.7 0 0 Z " fill="#5E909C" transform="translate(77,67)"/>
<path d="M0 0 C1.32 0.33 2.64 0.66 4 1 C3.67 1.33 3.34 1.66 3 2 C4.65 2.33 6.3 2.66 8 3 C8 3.33 8 3.66 8 4 C2.72 4 -2.56 4 -8 4 C-5.07735566 2.53867783 -3.07536854 1.65900754 0 1 C0 0.67 0 0.34 0 0 Z " fill="#181A30" transform="translate(116,50)"/>
<path d="M0 0 C2.375 0.25 2.375 0.25 5 1 C6.3125 3.0625 6.3125 3.0625 7 5 C4.36 4.67 1.72 4.34 -1 4 C-0.67 2.68 -0.34 1.36 0 0 Z " fill="#64A8AF" transform="translate(109,162)"/>
<path d="M0 0 C2.58926331 2.58926331 2.37398043 4.02705279 2.625 7.625 C2.69976562 8.62789062 2.77453125 9.63078125 2.8515625 10.6640625 C2.90054688 11.43492187 2.94953125 12.20578125 3 13 C2.01 12.67 1.02 12.34 0 12 C0 8.04 0 4.08 0 0 Z " fill="#9AC9CA" transform="translate(123,149)"/>
<path d="M0 0 C1.9375 0.6875 1.9375 0.6875 4 2 C4.75 4.625 4.75 4.625 5 7 C-0.75 6.25 -0.75 6.25 -3 4 C-2.67 3.34 -2.34 2.68 -2 2 C-1.34 2 -0.68 2 0 2 C0 1.34 0 0.68 0 0 Z " fill="#171933" transform="translate(131,48)"/>
<path d="M0 0 C0.99 0 1.98 0 3 0 C3.268125 0.763125 3.53625 1.52625 3.8125 2.3125 C4.94424112 4.87380884 5.91223401 6.19692938 8 8 C2.25 6.25 2.25 6.25 0 4 C0 2.68 0 1.36 0 0 Z " fill="#688190" transform="translate(132,113)"/>
<path d="M0 0 C0.99 0 1.98 0 3 0 C3.25 7.5 3.25 7.5 1 12 C0.67 8.04 0.34 4.08 0 0 Z " fill="#1D1E35" transform="translate(148,72)"/>
<path d="M0 0 C1.32 0.66 2.64 1.32 4 2 C0.17010894 3.80230168 -2.78121808 4.19622241 -7 4 C-7 3.01 -7 2.02 -7 1 C-4.69 1 -2.38 1 0 1 C0 0.67 0 0.34 0 0 Z " fill="#92C8C7" transform="translate(145,184)"/>
<path d="M0 0 C2.0625 1.6875 2.0625 1.6875 4 4 C3.75 6.75 3.75 6.75 3 9 C2.34 8.34 1.68 7.68 1 7 C0.01 7.495 0.01 7.495 -1 8 C-1.125 2.25 -1.125 2.25 0 0 Z " fill="#415E71" transform="translate(78,152)"/>
<path d="M0 0 C0.33 0 0.66 0 1 0 C1.3125 2.8125 1.3125 2.8125 1 6 C-1.5 7.875 -1.5 7.875 -4 9 C-4 4.98525763 -2.33218233 3.18024863 0 0 Z " fill="#AFD8D7" transform="translate(149,162)"/>
<path d="M0 0 C0.33 0 0.66 0 1 0 C1.144375 0.7425 1.28875 1.485 1.4375 2.25 C1.93059024 4.91958229 1.93059024 4.91958229 2.6875 7.125 C3 9 3 9 1 12 C0.34 12 -0.32 12 -1 12 C-0.67 8.04 -0.34 4.08 0 0 Z " fill="#93C7C8" transform="translate(151,152)"/>
<path d="M0 0 C0.66 0.66 1.32 1.32 2 2 C1.625 5.625 1.625 5.625 1 9 C0.01 9 -0.98 9 -2 9 C-2 7.02 -2 5.04 -2 3 C-1.34 3 -0.68 3 0 3 C0 2.01 0 1.02 0 0 Z " fill="#67969D" transform="translate(37,27)"/>
<path d="M0 0 C0.99 0.33 1.98 0.66 3 1 C1.68775452 4.93673644 0.08089673 7.22719294 -3 10 C-3 9.01 -3 8.02 -3 7 C-2.34 7 -1.68 7 -1 7 C-1.33 6.01 -1.66 5.02 -2 4 C-1.34 4 -0.68 4 0 4 C0 2.68 0 1.36 0 0 Z " fill="#58596B" transform="translate(163,91)"/>
<path d="M0 0 C3.057952 1.73559438 5.63379989 3.38472619 8 6 C7.67 6.66 7.34 7.32 7 8 C5.68 7.67 4.36 7.34 3 7 C2.67 5.35 2.34 3.7 2 2 C1.34 2 0.68 2 0 2 C0 1.34 0 0.68 0 0 Z " fill="#6C6F7D" transform="translate(153,48)"/>
<path d="M0 0 C0.33 0 0.66 0 1 0 C1.66 3.3 2.32 6.6 3 10 C1.68 9.34 0.36 8.68 -1 8 C-1.04241723 5.66705225 -1.04092937 3.33297433 -1 1 C-0.67 0.67 -0.34 0.34 0 0 Z " fill="#98AFB5" transform="translate(53,44)"/>
<path d="M0 0 C6.52307692 -0.36923077 6.52307692 -0.36923077 8.9375 1.5 C9.288125 1.995 9.63875 2.49 10 3 C8.35 3.33 6.7 3.66 5 4 C4.67 3.34 4.34 2.68 4 2 C1.98330173 0.86649466 1.98330173 0.86649466 0 0 Z " fill="#78ACB0" transform="translate(120,176)"/>
<path d="M0 0 C2.64 0 5.28 0 8 0 C8.66 1.32 9.32 2.64 10 4 C9.01 4 8.02 4 7 4 C7 3.34 7 2.68 7 2 C4.69 1.67 2.38 1.34 0 1 C0 0.67 0 0.34 0 0 Z " fill="#6D959D" transform="translate(112,176)"/>
<path d="M0 0 C0.99 0.495 0.99 0.495 2 1 C2.59355614 3.64860427 2.74209269 6.29197322 3 9 C2.34 9 1.68 9 1 9 C-0.4783226 6.04335481 -0.06032783 3.25770263 0 0 Z " fill="#587B86" transform="translate(60,124)"/>
<path d="M0 0 C1.45922693 0.11409593 2.91740598 0.24165544 4.375 0.375 C5.59316406 0.47941406 5.59316406 0.47941406 6.8359375 0.5859375 C9 1 9 1 11 3 C9 4 9 4 6.8359375 3.44140625 C6.02382812 3.15136719 5.21171875 2.86132812 4.375 2.5625 C3.55773437 2.27503906 2.74046875 1.98757812 1.8984375 1.69140625 C1.27195312 1.46324219 0.64546875 1.23507813 0 1 C0 0.67 0 0.34 0 0 Z " fill="#5D818D" transform="translate(91,84)"/>
<path d="M0 0 C0.99 0 1.98 0 3 0 C2.25 1.9375 2.25 1.9375 1 4 C-1.125 4.75 -1.125 4.75 -3 5 C-1.125 1.125 -1.125 1.125 0 0 Z " fill="#83BDBE" transform="translate(145,170)"/>
<path d="M0 0 C0.66 0 1.32 0 2 0 C2 0.99 2 1.98 2 3 C2.66 3.33 3.32 3.66 4 4 C2.02 4.99 2.02 4.99 0 6 C-0.38218767 4.34385343 -0.71395102 2.67542976 -1 1 C-0.67 0.67 -0.34 0.34 0 0 Z " fill="#81B2B6" transform="translate(165,166)"/>
<path d="M0 0 C0.33 0 0.66 0 1 0 C1 2.64 1 5.28 1 8 C0.01 8 -0.98 8 -2 8 C-2 6.35 -2 4.7 -2 3 C-1.34 3 -0.68 3 0 3 C0 2.01 0 1.02 0 0 Z " fill="#62919F" transform="translate(155,144)"/>
<path d="M0 0 C0.99 0 1.98 0 3 0 C3 2.31 3 4.62 3 7 C2.01 6.67 1.02 6.34 0 6 C0 4.02 0 2.04 0 0 Z " fill="#72A0A6" transform="translate(121,118)"/>
<path d="M0 0 C1.32 0.66 2.64 1.32 4 2 C3.34 3.98 2.68 5.96 2 8 C1.67 6.68 1.34 5.36 1 4 C0.34 4 -0.32 4 -1 4 C-0.67 2.68 -0.34 1.36 0 0 Z " fill="#445D6E" transform="translate(80,52)"/>
<path d="M0 0 C1.45792884 -0.05399736 2.91642712 -0.09279177 4.375 -0.125 C5.18710937 -0.14820312 5.99921875 -0.17140625 6.8359375 -0.1953125 C9 0 9 0 11 2 C6.70700357 3.26264601 4.12168689 2.62950412 0 1 C0 0.67 0 0.34 0 0 Z " fill="#658F9A" transform="translate(21,21)"/>
<path d="M0 0 C2.97 0.33 5.94 0.66 9 1 C8.67 2.32 8.34 3.64 8 5 C7.13375 4.319375 7.13375 4.319375 6.25 3.625 C3.8094951 1.77047097 3.8094951 1.77047097 0 0 Z " fill="#6CA6AF" transform="translate(16,21)"/>
<path d="M0 0 C1.65 0 3.3 0 5 0 C5 0.99 5 1.98 5 3 C2.69 3 0.38 3 -2 3 C-1.34 2.67 -0.68 2.34 0 2 C0 1.34 0 0.68 0 0 Z " fill="#79AEB0" transform="translate(133,185)"/>
<path d="M0 0 C0.99 0.33 1.98 0.66 3 1 C2.25 5.75 2.25 5.75 0 8 C0 5.36 0 2.72 0 0 Z " fill="#547D88" transform="translate(79,143)"/>
<path d="M0 0 C0.99 0 1.98 0 3 0 C3 2.97 3 5.94 3 9 C2.67 9 2.34 9 2 9 C2 7.35 2 5.7 2 4 C1.34 4 0.68 4 0 4 C0 2.68 0 1.36 0 0 Z " fill="#74AAAD" transform="translate(35,36)"/>
</svg>
